<svg width="100" height="115" viewBox="0 0 100 115" fill="none" xmlns="http://www.w3.org/2000/svg">
<rect x="0.25" y="8.25" width="99.5" height="101.206" stroke="#03363D" stroke-width="0.5"/>
<rect x="6" y="100" width="89" height="15" fill="white"/>
<path d="M12.079 110.012V109.436H13.654V112.631C13.444 112.679 13.201 112.718 12.925 112.748C12.655 112.784 12.415 112.802 12.205 112.802C11.659 112.802 11.254 112.724 10.99 112.568C10.726 112.406 10.543 112.106 10.441 111.668C10.339 111.23 10.288 110.552 10.288 109.634C10.288 108.728 10.339 108.056 10.441 107.618C10.543 107.18 10.726 106.88 10.99 106.718C11.254 106.55 11.662 106.466 12.214 106.466C12.454 106.466 12.709 106.484 12.979 106.52C13.255 106.556 13.474 106.595 13.636 106.637V107.195C13.474 107.159 13.276 107.129 13.042 107.105C12.814 107.075 12.631 107.06 12.493 107.06C12.007 107.06 11.668 107.105 11.476 107.195C11.284 107.285 11.152 107.501 11.08 107.843C11.008 108.185 10.972 108.782 10.972 109.634C10.972 110.414 10.999 110.978 11.053 111.326C11.107 111.668 11.218 111.902 11.386 112.028C11.554 112.154 11.83 112.217 12.214 112.217C12.526 112.217 12.787 112.193 12.997 112.145V110.012H12.079ZM18.9226 112.73L18.4906 111.011H16.5916L16.1686 112.73H15.4936L17.1136 106.538H17.9956L19.6156 112.73H18.9226ZM17.5636 107.357H17.5186L16.7536 110.417H18.3286L17.5636 107.357ZM21.5788 106.538H23.4598C23.9698 106.538 24.3358 106.67 24.5578 106.934C24.7798 107.198 24.8908 107.582 24.8908 108.086C24.8908 108.512 24.8158 108.845 24.6658 109.085C24.5218 109.319 24.2908 109.472 23.9728 109.544V109.58C24.3448 109.658 24.5998 109.826 24.7378 110.084C24.8758 110.336 24.9448 110.675 24.9448 111.101C24.9448 111.605 24.8368 112.004 24.6208 112.298C24.4048 112.586 24.0058 112.73 23.4238 112.73H21.5788V106.538ZM23.2708 109.292C23.5888 109.292 23.8258 109.205 23.9818 109.031C24.1378 108.857 24.2158 108.584 24.2158 108.212C24.2158 107.942 24.1888 107.732 24.1348 107.582C24.0808 107.426 23.9848 107.312 23.8468 107.24C23.7148 107.168 23.5228 107.132 23.2708 107.132H22.2448V109.292H23.2708ZM23.2978 112.136C23.6698 112.136 23.9218 112.052 24.0538 111.884C24.1918 111.716 24.2608 111.428 24.2608 111.02C24.2608 110.606 24.1888 110.315 24.0448 110.147C23.9008 109.973 23.6518 109.886 23.2978 109.886H22.2448V112.136H23.2978ZM29.9145 112.73L29.1405 110.237H29.0145H27.8535V112.73H27.1785V106.538H29.0685C29.4945 106.538 29.8125 106.616 30.0225 106.772C30.2325 106.928 30.3675 107.135 30.4275 107.393C30.4935 107.651 30.5265 107.984 30.5265 108.392C30.5265 108.842 30.4785 109.214 30.3825 109.508C30.2925 109.796 30.0945 110 29.7885 110.12L30.6255 112.73H29.9145ZM28.8975 109.652C29.1795 109.652 29.3895 109.607 29.5275 109.517C29.6655 109.427 29.7525 109.298 29.7885 109.13C29.8305 108.956 29.8515 108.71 29.8515 108.392C29.8515 108.068 29.8305 107.822 29.7885 107.654C29.7525 107.486 29.6685 107.357 29.5365 107.267C29.4045 107.177 29.1945 107.132 28.9065 107.132H27.8535V109.652H28.8975ZM32.814 112.73V106.538H33.489V112.73H32.814ZM35.9345 112.73V106.538H38.8595V107.132H36.6095V109.301H38.5625V109.895H36.6095V112.136H38.8595V112.73H35.9345ZM40.9981 112.73V106.538H41.6731V112.118H43.6711V112.73H40.9981ZM48.5392 112.73L48.1072 111.011H46.2082L45.7852 112.73H45.1102L46.7302 106.538H47.6122L49.2322 112.73H48.5392ZM47.1802 107.357H47.1352L46.3702 110.417H47.9452L47.1802 107.357ZM56.9229 112.73L55.4649 109.886H54.7719V112.73H54.0969V106.538H54.7719V109.292H55.4649L56.9229 106.538H57.6519L56.0229 109.553L57.6699 112.73H56.9229ZM62.561 112.73L62.129 111.011H60.23L59.807 112.73H59.132L60.752 106.538H61.634L63.254 112.73H62.561ZM61.202 107.357H61.157L60.392 110.417H61.967L61.202 107.357ZM66.5331 112.802C65.9751 112.802 65.4621 112.763 64.9941 112.685V112.1C65.2041 112.13 65.4351 112.157 65.6871 112.181C65.9391 112.199 66.1521 112.208 66.3261 112.208C66.5661 112.208 66.7551 112.193 66.8931 112.163C67.0371 112.127 67.1541 112.067 67.2441 111.983C67.3281 111.905 67.3821 111.791 67.4061 111.641C67.4361 111.491 67.4511 111.29 67.4511 111.038C67.4511 110.708 67.4391 110.477 67.4151 110.345C67.3911 110.213 67.3341 110.12 67.2441 110.066C67.1601 110.006 67.0071 109.958 66.7851 109.922L65.7411 109.76C65.4891 109.718 65.3001 109.634 65.1741 109.508C65.0481 109.376 64.9641 109.208 64.9221 109.004C64.8861 108.8 64.8681 108.527 64.8681 108.185C64.8681 107.561 65.0001 107.12 65.2641 106.862C65.5281 106.598 65.9511 106.466 66.5331 106.466C67.0911 106.466 67.5471 106.514 67.9011 106.61V107.168C67.4991 107.096 67.0941 107.06 66.6861 107.06C66.4281 107.06 66.2241 107.084 66.0741 107.132C65.9241 107.174 65.8101 107.24 65.7321 107.33C65.6541 107.42 65.6031 107.531 65.5791 107.663C65.5551 107.795 65.5431 107.963 65.5431 108.167C65.5431 108.443 65.5551 108.644 65.5791 108.77C65.6031 108.89 65.6511 108.974 65.7231 109.022C65.7951 109.07 65.9151 109.109 66.0831 109.139L67.0911 109.301C67.3431 109.343 67.5411 109.406 67.6851 109.49C67.8291 109.574 67.9401 109.718 68.0181 109.922C68.0901 110.096 68.1261 110.441 68.1261 110.957C68.1261 111.419 68.0751 111.782 67.9731 112.046C67.8771 112.31 67.7121 112.502 67.4781 112.622C67.2501 112.742 66.9351 112.802 66.5331 112.802ZM69.9294 112.73V112.172L72.3954 107.132H70.0014V106.538H73.1964V107.096L70.7214 112.136H73.2324V112.73H69.9294ZM78.6938 106.538V110.039C78.6938 110.843 78.6578 111.428 78.5858 111.794C78.5138 112.16 78.3578 112.421 78.1178 112.577C77.8838 112.727 77.4998 112.802 76.9658 112.802C76.4318 112.802 76.0448 112.727 75.8048 112.577C75.5648 112.421 75.4088 112.16 75.3368 111.794C75.2648 111.422 75.2288 110.837 75.2288 110.039V106.538H75.9038V110.345C75.9038 110.915 75.9248 111.32 75.9668 111.56C76.0088 111.8 76.0988 111.968 76.2368 112.064C76.3808 112.16 76.6238 112.208 76.9658 112.208C77.3078 112.208 77.5478 112.16 77.6858 112.064C77.8298 111.968 77.9198 111.8 77.9558 111.56C77.9978 111.32 78.0188 110.915 78.0188 110.345V106.538H78.6938ZM81.0758 106.538H82.9568C83.4668 106.538 83.8328 106.67 84.0548 106.934C84.2768 107.198 84.3878 107.582 84.3878 108.086C84.3878 108.512 84.3128 108.845 84.1628 109.085C84.0188 109.319 83.7878 109.472 83.4698 109.544V109.58C83.8418 109.658 84.0968 109.826 84.2348 110.084C84.3728 110.336 84.4418 110.675 84.4418 111.101C84.4418 111.605 84.3338 112.004 84.1178 112.298C83.9018 112.586 83.5028 112.73 82.9208 112.73H81.0758V106.538ZM82.7678 109.292C83.0858 109.292 83.3228 109.205 83.4788 109.031C83.6348 108.857 83.7128 108.584 83.7128 108.212C83.7128 107.942 83.6858 107.732 83.6318 107.582C83.5778 107.426 83.4818 107.312 83.3438 107.24C83.2118 107.168 83.0198 107.132 82.7678 107.132H81.7418V109.292H82.7678ZM82.7948 112.136C83.1668 112.136 83.4188 112.052 83.5508 111.884C83.6888 111.716 83.7578 111.428 83.7578 111.02C83.7578 110.606 83.6858 110.315 83.5418 110.147C83.3978 109.973 83.1488 109.886 82.7948 109.886H81.7418V112.136H82.7948ZM89.6365 112.73L89.2045 111.011H87.3055L86.8825 112.73H86.2075L87.8275 106.538H88.7095L90.3295 112.73H89.6365ZM88.2775 107.357H88.2325L87.4675 110.417H89.0425L88.2775 107.357Z" fill="#03363D"/>
<path d="M49.9798 64.9031C45.4905 64.9031 41.8511 61.3007 41.8511 56.8569C41.8511 52.4131 45.4905 48.8107 49.9798 48.8107M49.9798 64.9031L48.217 64.7134C47.7382 64.7134 47.334 64.4919 47.2553 64.951L45.445 75.5121C45.437 75.5586 45.4265 75.6012 45.4119 75.6462C45.1796 76.3608 43.1154 82.873 43.6702 87.0085C44.1964 90.9313 46.765 93.9377 47.2957 94.5227C47.3418 94.5735 47.4233 94.5586 47.4521 94.497L48.3016 92.6801C48.3326 92.6136 48.4258 92.6045 48.4699 92.6635L49.8589 94.5203C49.898 94.5726 49.9782 94.5726 50.0173 94.5203L51.4258 92.6372C51.4649 92.5849 51.5451 92.5849 51.5842 92.6372L52.9837 94.5082C53.0253 94.5638 53.1108 94.5609 53.1456 94.5011C53.5779 93.7585 55.7824 89.8659 56.206 87.0085C56.8736 82.5043 54.7734 80.0443 53.8555 75.5819L51.6618 64.9172C51.5702 64.4722 50.4467 64.9031 49.9798 64.9031ZM49.9798 64.9031C51.4666 64.9031 52.8601 64.508 54.059 63.8181M49.9798 48.8107C54.4692 48.8107 58.1085 52.4131 58.1085 56.8569C58.1085 59.829 56.4805 62.4248 54.059 63.8181M49.9798 48.8107L52.0917 49.0962M49.9798 48.8107C49.5011 48.8107 47.7639 49.5216 47.6852 49.0624L45.8749 38.5014C45.8669 38.4549 45.8564 38.4122 45.8418 38.3673C45.6095 37.6527 43.5452 31.1405 44.1001 27.005C44.6263 23.0821 47.1949 20.0758 47.7256 19.4907C47.7717 19.44 47.8532 19.4548 47.882 19.5165L48.7314 21.3334C48.7625 21.3998 48.8557 21.409 48.8998 21.35L50.2888 19.4931C50.3279 19.4408 50.408 19.4408 50.4472 19.4931L51.8557 21.3762C51.8948 21.4285 51.975 21.4285 52.0141 21.3762L53.4136 19.5053C53.4552 19.4497 53.5407 19.4525 53.5755 19.5124C54.0078 20.255 56.2123 24.1476 56.6359 27.005C57.3035 31.5091 55.2033 33.9692 54.2854 38.4315L52.0917 49.0962M69.6331 52.4051L58.6331 54.1974C58.1608 54.2739 58.0106 55.1387 58.0106 55.6041L58.0769 57.571C58.0769 58.0249 58.1406 58.3926 58.5983 58.4817L69.567 60.6146C74.1566 61.5071 76.6868 63.549 81.3194 62.8999C84.2582 62.4881 88.2618 60.3447 89.0255 59.9244C89.0871 59.8905 89.09 59.8074 89.0329 59.767L87.1086 58.4063C87.0548 58.3683 87.0548 58.2903 87.1086 58.2523L89.0453 56.8827C89.0991 56.8447 89.0991 56.7668 89.0453 56.7287L87.1355 55.3783C87.0749 55.3354 87.0843 55.2448 87.1526 55.2146L89.0213 54.3887C89.0847 54.3607 89.1 54.2814 89.0478 54.2366C88.4461 53.7207 85.354 51.2233 81.3194 50.7116C77.0659 50.1721 70.3681 52.1792 69.6331 52.4051ZM69.6331 52.4051C69.681 52.3973 69.5869 52.4193 69.6331 52.4051ZM58.0106 56.2344H68.9794M72.3092 56.4248H74.0721M77.7937 56.4248H80.1441M41.036 54.4391L30.1707 52.1515C30.1228 52.1438 30.079 52.1336 30.0327 52.1194C29.2978 51.8935 22.5999 49.8865 18.3465 50.4259C14.3118 50.9376 11.2198 53.435 10.6181 53.9509C10.5658 53.9957 10.5811 54.075 10.6445 54.1031L12.5132 54.9289C12.5816 54.9591 12.591 55.0497 12.5303 55.0926L10.6205 56.4431C10.5668 56.4811 10.5668 56.5591 10.6205 56.5971L12.5573 57.9666C12.6111 58.0046 12.6111 58.0826 12.5573 58.1206L10.633 59.4813C10.5758 59.5218 10.5788 59.6048 10.6403 59.6387C11.4041 60.059 15.4076 62.2024 18.3465 62.6142C22.9791 63.2634 25.5093 61.2214 30.0988 60.3289L41.0675 58.196C41.5253 58.107 41.8511 57.7169 41.8511 57.263V54.851C41.8511 54.3855 41.5082 54.5157 41.036 54.4391ZM41.036 54.4391L30.724 50.683C30.6785 50.6664 30.6353 50.6539 30.588 50.6437C29.8353 50.4821 23.0027 48.9641 19.5965 46.4292C16.3655 44.0246 14.972 40.3586 14.7163 39.6193C14.6941 39.5551 14.7481 39.4939 14.8174 39.5004L16.8605 39.6937C16.9351 39.7007 16.9899 39.6269 16.9594 39.5602L16 37.4623C15.973 37.4032 16.0131 37.3357 16.0792 37.3289L18.4608 37.0844C18.5269 37.0776 18.567 37.0101 18.54 36.951L17.5732 34.8371C17.5445 34.7743 17.5898 34.7038 17.6605 34.7044C18.5381 34.7117 23.1075 34.8017 25.8644 35.8738C30.2102 37.5637 31.3513 40.5621 34.867 43.5662L43.2693 50.7457C43.62 51.0454 43.7016 51.5416 43.4681 51.9347L42.2277 54.0236C41.9884 54.4267 41.4843 54.6024 41.036 54.4391ZM41.6553 55.9487H30.6864M27.3566 56.1392H25.5938M21.8722 56.1392H19.5217M42.6226 52.9776L33.1234 47.6452M54.059 49.8956L55.3926 50.9638C55.7968 51.2875 55.7538 51.3355 56.1011 50.9513V50.9513L63.4853 42.7819C66.575 39.3636 69.6589 38.2541 71.397 34.0288C72.4996 31.3483 72.5922 26.9055 72.5997 26.0523C72.6003 25.9835 72.5278 25.9395 72.4632 25.9674L70.2891 26.9074C70.2283 26.9337 70.1589 26.8947 70.1519 26.8304L69.9004 24.5148C69.8934 24.4505 69.824 24.4115 69.7632 24.4378L67.6055 25.3707C67.5369 25.4003 67.4609 25.3471 67.4682 25.2744L67.6669 23.288C67.6737 23.2206 67.6107 23.1681 67.5447 23.1897C66.7843 23.4384 63.0138 24.7932 60.5407 27.9347C57.9335 31.2464 56.3722 37.8896 56.206 38.6214C56.1955 38.6675 56.1826 38.7095 56.1656 38.7537L52.3024 48.7799C52.1344 49.2158 53.6444 49.6629 54.059 49.8956ZM54.059 49.8956L59.29 41.0866M63.8667 33.76L65.0419 31.7809M69.3372 46.125L70.8639 45.268M52.0917 49.0962C52.5585 49.0962 52.9163 49.3517 52.0917 49.0962ZM45.5138 50.1328L40.5842 41.389M39.0889 38.49L38.2075 37.0056M36.3467 33.872L35.1715 31.8929M55.4569 62.8024C55.8612 62.5755 56.9189 63.7679 57.2271 64.1089L63.1915 70.1534C66.2812 73.5716 69.3651 74.6811 71.1032 78.9064C72.2058 81.5869 72.2984 86.0297 72.3059 86.8829C72.3065 86.9517 72.234 86.9957 72.1694 86.9678L69.9953 86.0278C69.9345 86.0016 69.865 86.0406 69.8581 86.1049L69.6066 88.4204C69.5996 88.4847 69.5302 88.5237 69.4694 88.4974L67.3117 87.5646C67.2431 87.5349 67.1671 87.5882 67.1744 87.6608L67.3731 89.6472C67.3799 89.7146 67.3169 89.7671 67.2509 89.7456C66.4905 89.4969 62.72 88.142 60.2469 85.0006C57.6397 81.6888 56.0784 75.0456 55.9122 74.3138C55.9017 74.2677 55.8888 74.2257 55.8718 74.1816L52.0917 64.6289M69.0434 66.8103L70.5701 67.6672M73.793 69.4765L75.8286 70.6191M45.3768 63.6923L40.2904 71.5462M42.3968 59.7611L33.1234 64.9091M30.3376 66.6928L28.8109 67.5498M25.5879 69.359L23.5524 70.5017M54.059 63.8181L56.4317 67.6672M57.2271 68.9905L58.0106 70.1534M74.286 36.6644C78.0432 35.1461 82.0054 35.8058 82.7918 35.9601C82.86 35.9735 82.8876 36.0496 82.8471 36.1047L81.6534 37.7284C81.6098 37.7877 81.6482 37.8708 81.7228 37.8784L84.0712 38.1195C84.1373 38.1263 84.1774 38.1938 84.1504 38.2529L83.1774 40.3805C83.1504 40.4396 83.1905 40.5071 83.2566 40.5139L85.6228 40.7568C85.6932 40.764 85.7333 40.8374 85.6974 40.8967C85.2521 41.6319 82.8872 45.4345 80.5539 47.2198C76.8758 50.0341 73.6345 49.4957 69.2008 50.954L58.6048 54.4391C58.1626 54.5846 57.7802 54.3048 57.5468 53.9117L56.5509 52.1194C56.3115 51.7163 56.0621 51.0078 56.4317 50.7119L64.9334 43.9071C64.9708 43.8771 65.0036 43.847 65.0363 43.8122C65.5566 43.2592 70.325 38.265 74.286 36.6644ZM29.495 33.7599C27.9334 30.1068 28.6118 26.2545 28.7705 25.4899C28.7843 25.4235 28.8626 25.3968 28.9193 25.4361L30.5892 26.5967C30.6503 26.6391 30.7357 26.6018 30.7436 26.5292L30.9915 24.2459C30.9985 24.1816 31.068 24.1426 31.1287 24.1689L33.317 25.115C33.3777 25.1412 33.4472 25.1022 33.4542 25.038L33.704 22.7373C33.7114 22.6689 33.7869 22.6299 33.8478 22.6648C34.6041 23.0977 38.5151 25.3971 40.3513 27.6658C43.2458 31.2419 42.692 34.3934 44.1919 38.7041L47.7764 49.0065C47.926 49.4364 47.4476 49.1248 47.0434 49.3517L44.9851 50.5084C44.5705 50.7411 44.2472 51.4787 43.9429 51.1194L36.9441 42.8533C36.9133 42.8169 36.8823 42.7851 36.8465 42.7532C36.2778 42.2473 31.1412 37.6111 29.495 33.7599ZM73.9083 76.1383C77.6656 77.6566 81.6277 76.9969 82.4141 76.8426C82.4824 76.8292 82.5099 76.7531 82.4694 76.698L81.2757 75.0743C81.2321 75.015 81.2705 74.9319 81.3451 74.9243L83.6935 74.6832C83.7597 74.6764 83.7998 74.6089 83.7728 74.5498L82.7997 72.4222C82.7727 72.3631 82.8128 72.2956 82.8789 72.2888L85.2452 72.0459C85.3155 72.0387 85.3556 71.9653 85.3198 71.906C84.8745 71.1708 82.5096 67.3682 80.1762 65.5829C76.4981 62.7686 73.2568 63.307 68.8232 61.8487L58.2271 58.3636C57.7849 58.2181 57.9342 58.9871 57.7008 59.3802L56.7996 61.2371C56.5603 61.6402 55.6844 61.7949 56.054 62.0908L64.5557 68.8956C64.5931 68.9256 64.6259 68.9557 64.6586 68.9905C65.179 69.5435 69.9473 74.5377 73.9083 76.1383ZM28.7619 80.3813C27.2003 84.0344 27.8788 87.8867 28.0375 88.6513C28.0513 88.7177 28.1296 88.7445 28.1862 88.7051L29.8562 87.5445C29.9172 87.5021 30.0026 87.5395 30.0105 87.612L30.2585 89.8953C30.2655 89.9596 30.3349 89.9986 30.3957 89.9723L32.5839 89.0263C32.6447 89 32.7141 89.039 32.7211 89.1033L32.971 91.4039C32.9784 91.4723 33.0539 91.5114 33.1148 91.4765C33.871 91.0435 37.782 88.7442 39.6182 86.4755C42.5127 82.8993 41.959 79.7479 43.4588 75.4371L47.0434 65.1348C47.1929 64.7048 46.8584 64.3358 46.4541 64.1089L44.4557 62.8024C44.0411 62.5697 43.5142 62.6625 43.2099 63.0219L36.211 71.2879C36.1802 71.3243 36.1492 71.3562 36.1134 71.388C35.5447 71.8939 30.4081 76.5301 28.7619 80.3813ZM19.5965 66.1252C16.3655 68.5297 14.972 72.1957 14.7163 72.935C14.6941 72.9992 14.7481 73.0605 14.8174 73.0539L16.8605 72.8607C16.9351 72.8536 16.9899 72.9275 16.9594 72.9941L16 75.0921C15.973 75.1512 16.0131 75.2187 16.0792 75.2255L18.4608 75.47C18.5269 75.4767 18.567 75.5443 18.54 75.6033L17.5732 77.7172C17.5445 77.78 17.5898 77.8505 17.6605 77.85C18.5381 77.8426 23.1075 77.7526 25.8644 76.6806C30.2102 74.9906 31.3513 71.9922 34.867 68.9881L43.2693 61.8086C43.4049 61.6927 43.3989 61.5467 43.327 61.3884C43.0675 60.8172 42.6826 60.3178 42.4688 59.728L42.3384 59.3683C42.1246 58.7785 41.8683 57.9547 41.2495 58.0574C41.1824 58.0685 41.1114 58.0878 41.036 58.1152L30.724 61.8714C30.6785 61.8879 30.6353 61.9004 30.588 61.9106C29.8353 62.0723 23.0027 63.5902 19.5965 66.1252Z" stroke="#03363D" stroke-width="0.5"/>
<rect x="14" width="75" height="12" fill="white"/>
<path d="M27.8791 12.3891V6.8091H26.5021V6.1971H29.9311V6.8091H28.5541V12.3891H27.8791ZM31.8759 12.3891V6.1971H34.8009V6.7911H32.5509V8.9601H34.5039V9.5541H32.5509V11.7951H34.8009V12.3891H31.8759ZM39.6754 12.3891L38.9014 9.8961H38.7754H37.6144V12.3891H36.9394V6.1971H38.8294C39.2554 6.1971 39.5734 6.2751 39.7834 6.4311C39.9934 6.5871 40.1284 6.7941 40.1884 7.0521C40.2544 7.3101 40.2874 7.6431 40.2874 8.0511C40.2874 8.5011 40.2394 8.8731 40.1434 9.1671C40.0534 9.4551 39.8554 9.6591 39.5494 9.7791L40.3864 12.3891H39.6754ZM38.6584 9.3111C38.9404 9.3111 39.1504 9.2661 39.2884 9.1761C39.4264 9.0861 39.5134 8.9571 39.5494 8.7891C39.5914 8.6151 39.6124 8.3691 39.6124 8.0511C39.6124 7.7271 39.5914 7.4811 39.5494 7.3131C39.5134 7.1451 39.4294 7.0161 39.2974 6.9261C39.1654 6.8361 38.9554 6.7911 38.6674 6.7911H37.6144V9.3111H38.6584ZM45.5089 12.3891L45.0769 10.6701H43.1779L42.7549 12.3891H42.0799L43.6999 6.1971H44.5819L46.2019 12.3891H45.5089ZM44.1499 7.0161H44.1049L43.3399 10.0761H44.9149L44.1499 7.0161ZM48.1652 6.1971H50.0012C50.4212 6.1971 50.7362 6.2811 50.9462 6.4491C51.1562 6.6111 51.2912 6.8271 51.3512 7.0971C51.4172 7.3611 51.4502 7.7091 51.4502 8.1411C51.4502 8.5611 51.4172 8.9061 51.3512 9.1761C51.2912 9.4401 51.1562 9.6561 50.9462 9.8241C50.7362 9.9921 50.4212 10.0761 50.0012 10.0761H48.8402V12.3891H48.1652V6.1971ZM49.8212 9.4911C50.1092 9.4911 50.3192 9.4431 50.4512 9.3471C50.5892 9.2511 50.6762 9.1131 50.7122 8.9331C50.7542 8.7471 50.7752 8.4831 50.7752 8.1411C50.7752 7.7931 50.7542 7.5291 50.7122 7.3491C50.6762 7.1631 50.5922 7.0251 50.4602 6.9351C50.3282 6.8391 50.1182 6.7911 49.8302 6.7911H48.8402V9.4911H49.8212ZM53.5188 12.3891V6.1971H56.4438V6.7911H54.1938V8.9601H56.1468V9.5541H54.1938V11.7951H56.4438V12.3891H53.5188ZM61.9933 6.1971V9.6981C61.9933 10.5021 61.9573 11.0871 61.8853 11.4531C61.8133 11.8191 61.6573 12.0801 61.4173 12.2361C61.1833 12.3861 60.7993 12.4611 60.2653 12.4611C59.7313 12.4611 59.3443 12.3861 59.1043 12.2361C58.8643 12.0801 58.7083 11.8191 58.6363 11.4531C58.5643 11.0811 58.5283 10.4961 58.5283 9.6981V6.1971H59.2033V10.0041C59.2033 10.5741 59.2243 10.9791 59.2663 11.2191C59.3083 11.4591 59.3983 11.6271 59.5363 11.7231C59.6803 11.8191 59.9233 11.8671 60.2653 11.8671C60.6073 11.8671 60.8473 11.8191 60.9853 11.7231C61.1293 11.6271 61.2193 11.4591 61.2553 11.2191C61.2973 10.9791 61.3183 10.5741 61.3183 10.0041V6.1971H61.9933ZM65.2664 12.3891V6.8091H63.8893V6.1971H67.3184V6.8091H65.9414V12.3891H65.2664ZM71.7583 12.3891L71.3263 10.6701H69.4273L69.0043 12.3891H68.3293L69.9493 6.1971H70.8313L72.4513 12.3891H71.7583ZM70.3993 7.0161H70.3543L69.5893 10.0761H71.1643L70.3993 7.0161Z" fill="#03363D"/>
</svg>
