<svg width="293" height="336" viewBox="0 0 293 336" fill="none" xmlns="http://www.w3.org/2000/svg">
<rect x="1" y="19" width="291" height="296" stroke="#03363D" stroke-width="2"/>
<rect x="40" y="294" width="212" height="35" fill="white"/>
<path d="M69.8542 315.564V314.412H73.0042V320.802C72.5842 320.898 72.0982 320.976 71.5462 321.036C71.0062 321.108 70.5262 321.144 70.1062 321.144C69.0142 321.144 68.2042 320.988 67.6762 320.676C67.1482 320.352 66.7822 319.752 66.5782 318.876C66.3742 318 66.2722 316.644 66.2722 314.808C66.2722 312.996 66.3742 311.652 66.5782 310.776C66.7822 309.9 67.1482 309.3 67.6762 308.976C68.2042 308.64 69.0202 308.472 70.1242 308.472C70.6042 308.472 71.1142 308.508 71.6542 308.58C72.2062 308.652 72.6442 308.73 72.9682 308.814V309.93C72.6442 309.858 72.2482 309.798 71.7802 309.75C71.3242 309.69 70.9582 309.66 70.6822 309.66C69.7102 309.66 69.0322 309.75 68.6482 309.93C68.2642 310.11 68.0002 310.542 67.8562 311.226C67.7122 311.91 67.6402 313.104 67.6402 314.808C67.6402 316.368 67.6942 317.496 67.8022 318.192C67.9102 318.876 68.1322 319.344 68.4682 319.596C68.8042 319.848 69.3562 319.974 70.1242 319.974C70.7482 319.974 71.2702 319.926 71.6902 319.83V315.564H69.8542ZM83.5413 321L82.6773 317.562H78.8793L78.0333 321H76.6833L79.9233 308.616H81.6873L84.9273 321H83.5413ZM80.8233 310.254H80.7333L79.2033 316.374H82.3533L80.8233 310.254ZM88.8539 308.616H92.6159C93.6359 308.616 94.3679 308.88 94.8119 309.408C95.2559 309.936 95.4779 310.704 95.4779 311.712C95.4779 312.564 95.3279 313.23 95.0279 313.71C94.7399 314.178 94.2779 314.484 93.6419 314.628V314.7C94.3859 314.856 94.8959 315.192 95.1719 315.708C95.4479 316.212 95.5859 316.89 95.5859 317.742C95.5859 318.75 95.3699 319.548 94.9379 320.136C94.5059 320.712 93.7079 321 92.5439 321H88.8539V308.616ZM92.2379 314.124C92.8739 314.124 93.3479 313.95 93.6599 313.602C93.9719 313.254 94.1279 312.708 94.1279 311.964C94.1279 311.424 94.0739 311.004 93.9659 310.704C93.8579 310.392 93.6659 310.164 93.3899 310.02C93.1259 309.876 92.7419 309.804 92.2379 309.804H90.1859V314.124H92.2379ZM92.2919 319.812C93.0359 319.812 93.5399 319.644 93.8039 319.308C94.0799 318.972 94.2179 318.396 94.2179 317.58C94.2179 316.752 94.0739 316.17 93.7859 315.834C93.4979 315.486 92.9999 315.312 92.2919 315.312H90.1859V319.812H92.2919ZM105.525 321L103.977 316.014H103.725H101.403V321H100.053V308.616H103.833C104.685 308.616 105.321 308.772 105.741 309.084C106.161 309.396 106.431 309.81 106.551 310.326C106.683 310.842 106.749 311.508 106.749 312.324C106.749 313.224 106.653 313.968 106.461 314.556C106.281 315.132 105.885 315.54 105.273 315.78L106.947 321H105.525ZM103.491 314.844C104.055 314.844 104.475 314.754 104.751 314.574C105.027 314.394 105.201 314.136 105.273 313.8C105.357 313.452 105.399 312.96 105.399 312.324C105.399 311.676 105.357 311.184 105.273 310.848C105.201 310.512 105.033 310.254 104.769 310.074C104.505 309.894 104.085 309.804 103.509 309.804H101.403V314.844H103.491ZM111.324 321V308.616H112.674V321H111.324ZM117.565 321V308.616H123.415V309.804H118.915V314.142H122.821V315.33H118.915V319.812H123.415V321H117.565ZM127.692 321V308.616H129.042V319.776H133.038V321H127.692ZM142.775 321L141.911 317.562H138.113L137.267 321H135.917L139.157 308.616H140.921L144.161 321H142.775ZM140.057 310.254H139.967L138.437 316.374H141.587L140.057 310.254ZM159.542 321L156.626 315.312H155.24V321H153.89V308.616H155.24V314.124H156.626L159.542 308.616H161L157.742 314.646L161.036 321H159.542ZM170.818 321L169.954 317.562H166.156L165.31 321H163.96L167.2 308.616H168.964L172.204 321H170.818ZM168.1 310.254H168.01L166.48 316.374H169.63L168.1 310.254ZM178.762 321.144C177.646 321.144 176.62 321.066 175.684 320.91V319.74C176.104 319.8 176.566 319.854 177.07 319.902C177.574 319.938 178 319.956 178.348 319.956C178.828 319.956 179.206 319.926 179.482 319.866C179.77 319.794 180.004 319.674 180.184 319.506C180.352 319.35 180.46 319.122 180.508 318.822C180.568 318.522 180.598 318.12 180.598 317.616C180.598 316.956 180.574 316.494 180.526 316.23C180.478 315.966 180.364 315.78 180.184 315.672C180.016 315.552 179.71 315.456 179.266 315.384L177.178 315.06C176.674 314.976 176.296 314.808 176.044 314.556C175.792 314.292 175.624 313.956 175.54 313.548C175.468 313.14 175.432 312.594 175.432 311.91C175.432 310.662 175.696 309.78 176.224 309.264C176.752 308.736 177.598 308.472 178.762 308.472C179.878 308.472 180.79 308.568 181.498 308.76V309.876C180.694 309.732 179.884 309.66 179.068 309.66C178.552 309.66 178.144 309.708 177.844 309.804C177.544 309.888 177.316 310.02 177.16 310.2C177.004 310.38 176.902 310.602 176.854 310.866C176.806 311.13 176.782 311.466 176.782 311.874C176.782 312.426 176.806 312.828 176.854 313.08C176.902 313.32 176.998 313.488 177.142 313.584C177.286 313.68 177.526 313.758 177.862 313.818L179.878 314.142C180.382 314.226 180.778 314.352 181.066 314.52C181.354 314.688 181.576 314.976 181.732 315.384C181.876 315.732 181.948 316.422 181.948 317.454C181.948 318.378 181.846 319.104 181.642 319.632C181.45 320.16 181.12 320.544 180.652 320.784C180.196 321.024 179.566 321.144 178.762 321.144ZM185.555 321V319.884L190.487 309.804H185.699V308.616H192.089V309.732L187.139 319.812H192.161V321H185.555ZM203.084 308.616V315.618C203.084 317.226 203.012 318.396 202.868 319.128C202.724 319.86 202.412 320.382 201.932 320.694C201.464 320.994 200.696 321.144 199.628 321.144C198.56 321.144 197.786 320.994 197.306 320.694C196.826 320.382 196.514 319.86 196.37 319.128C196.226 318.384 196.154 317.214 196.154 315.618V308.616H197.504V316.23C197.504 317.37 197.546 318.18 197.63 318.66C197.714 319.14 197.894 319.476 198.17 319.668C198.458 319.86 198.944 319.956 199.628 319.956C200.312 319.956 200.792 319.86 201.068 319.668C201.356 319.476 201.536 319.14 201.608 318.66C201.692 318.18 201.734 317.37 201.734 316.23V308.616H203.084ZM207.848 308.616H211.61C212.63 308.616 213.362 308.88 213.806 309.408C214.25 309.936 214.472 310.704 214.472 311.712C214.472 312.564 214.322 313.23 214.022 313.71C213.734 314.178 213.272 314.484 212.636 314.628V314.7C213.38 314.856 213.89 315.192 214.166 315.708C214.442 316.212 214.58 316.89 214.58 317.742C214.58 318.75 214.364 319.548 213.932 320.136C213.5 320.712 212.702 321 211.538 321H207.848V308.616ZM211.232 314.124C211.868 314.124 212.342 313.95 212.654 313.602C212.966 313.254 213.122 312.708 213.122 311.964C213.122 311.424 213.068 311.004 212.96 310.704C212.852 310.392 212.66 310.164 212.384 310.02C212.12 309.876 211.736 309.804 211.232 309.804H209.18V314.124H211.232ZM211.286 319.812C212.03 319.812 212.534 319.644 212.798 319.308C213.074 318.972 213.212 318.396 213.212 317.58C213.212 316.752 213.068 316.17 212.78 315.834C212.492 315.486 211.994 315.312 211.286 315.312H209.18V319.812H211.286ZM224.969 321L224.105 317.562H220.307L219.461 321H218.111L221.351 308.616H223.115L226.355 321H224.969ZM222.251 310.254H222.161L220.631 316.374H223.781L222.251 310.254Z" fill="#03363D"/>
<path d="M146.441 190.166C133.287 190.166 122.624 179.611 122.624 166.591C122.624 153.57 133.287 143.015 146.441 143.015M146.441 190.166L141.276 189.61C139.873 189.61 138.689 188.961 138.458 190.307L133.154 221.25C133.13 221.387 133.1 221.512 133.057 221.643C132.376 223.737 126.328 242.818 127.954 254.935C129.496 266.429 137.022 275.237 138.576 276.952C138.711 277.1 138.95 277.057 139.035 276.876L141.524 271.553C141.615 271.358 141.888 271.331 142.017 271.504L146.086 276.945C146.201 277.098 146.436 277.098 146.551 276.945L150.678 271.427C150.792 271.274 151.027 271.274 151.142 271.427L155.242 276.909C155.364 277.072 155.615 277.063 155.717 276.888C156.983 274.712 163.443 263.307 164.683 254.935C166.64 241.738 160.486 234.53 157.797 221.455L151.369 190.208C151.101 188.903 147.809 190.166 146.441 190.166ZM146.441 190.166C150.797 190.166 154.88 189.008 158.393 186.987M146.441 143.015C159.595 143.015 170.258 153.57 170.258 166.591C170.258 175.299 165.488 182.905 158.393 186.987M146.441 143.015L152.629 143.852M146.441 143.015C145.038 143.015 139.948 145.098 139.718 143.753L134.413 112.809C134.39 112.673 134.359 112.548 134.317 112.416C133.636 110.322 127.588 91.2416 129.213 79.1245C130.755 67.6306 138.281 58.822 139.836 57.1079C139.971 56.9591 140.21 57.0027 140.294 57.1833L142.783 62.5068C142.874 62.7014 143.147 62.7284 143.276 62.5555L147.346 57.1149C147.461 56.9617 147.696 56.9617 147.81 57.1149L151.937 62.6324C152.052 62.7856 152.287 62.7856 152.401 62.6324L156.502 57.1505C156.624 56.9875 156.874 56.996 156.976 57.1713C158.243 59.3471 164.702 70.7524 165.943 79.1245C167.899 92.3218 161.746 99.5297 159.056 112.604L152.629 143.852M204.025 153.547L171.795 158.798C170.411 159.023 169.971 161.556 169.971 162.92L170.165 168.683C170.165 170.013 170.352 171.09 171.693 171.351L203.831 177.601C217.279 180.216 224.692 186.199 238.266 184.297C246.877 183.09 258.607 176.81 260.845 175.578C261.025 175.479 261.034 175.236 260.866 175.117L255.228 171.13C255.07 171.019 255.07 170.791 255.228 170.679L260.903 166.666C261.06 166.555 261.06 166.327 260.903 166.215L255.307 162.258C255.129 162.133 255.157 161.867 255.357 161.779L260.832 159.359C261.018 159.277 261.063 159.045 260.91 158.913C259.147 157.402 250.087 150.084 238.266 148.585C225.803 147.004 206.179 152.885 204.025 153.547ZM204.025 153.547C204.165 153.524 203.89 153.588 204.025 153.547ZM169.971 164.767H202.11M211.866 165.325H217.031M227.935 165.325H234.822M120.235 159.507L88.4001 152.804C88.2599 152.781 88.1314 152.751 87.9959 152.71C85.8424 152.048 66.2178 146.167 53.7553 147.748C41.9337 149.247 32.874 156.565 31.111 158.076C30.9579 158.208 31.0027 158.44 31.1885 158.522L36.6638 160.942C36.864 161.03 36.8917 161.296 36.7139 161.421L31.1182 165.378C30.9606 165.49 30.9606 165.718 31.1182 165.829L36.7929 169.842C36.9505 169.954 36.9505 170.182 36.7929 170.293L31.1547 174.28C30.9872 174.399 30.9959 174.642 31.1762 174.741C33.414 175.973 45.1444 182.253 53.7553 183.46C67.3288 185.362 74.7421 179.379 88.1896 176.764L120.328 170.514C121.669 170.253 122.624 169.11 122.624 167.781V160.713C122.624 159.349 121.619 159.731 120.235 159.507ZM120.235 159.507L90.0212 148.501C89.8881 148.453 89.7615 148.416 89.6228 148.386C87.4174 147.913 67.3979 143.465 57.4178 136.038C47.951 128.992 43.8681 118.251 43.1187 116.085C43.0536 115.897 43.2119 115.717 43.415 115.736L49.4012 116.303C49.62 116.323 49.7805 116.107 49.6912 115.911L46.8799 109.764C46.8008 109.591 46.9183 109.394 47.112 109.374L54.0901 108.657C54.2838 108.637 54.4013 108.44 54.3221 108.266L51.4896 102.073C51.4054 101.889 51.5381 101.682 51.7453 101.684C54.3166 101.705 67.705 101.969 75.7828 105.11C88.5159 110.062 91.8592 118.847 102.16 127.649L126.779 148.685C127.807 149.563 128.046 151.017 127.362 152.169L123.727 158.289C123.026 159.47 121.549 159.985 120.235 159.507ZM122.05 163.93H89.9113M80.1549 164.488H74.9898M64.0856 164.488H57.1987M124.884 155.224L97.0514 139.601M158.393 146.194L163.439 150.236C163.866 150.577 164.602 151.11 164.33 150.636C164.144 150.312 163.927 149.784 164.376 149.287L186.012 125.351C195.065 115.335 204.101 112.085 209.193 99.7045C212.424 91.8507 212.695 78.8333 212.717 76.3333C212.719 76.1318 212.507 76.0028 212.317 76.0846L205.947 78.8387C205.769 78.9156 205.565 78.8014 205.545 78.613L204.808 71.8284C204.788 71.64 204.584 71.5258 204.406 71.6028L198.084 74.3361C197.883 74.4229 197.661 74.2669 197.682 74.0541L198.264 68.2339C198.284 68.0364 198.099 67.8825 197.906 67.9458C195.678 68.6744 184.63 72.6441 177.384 81.8486C169.745 91.552 165.171 111.017 164.683 113.161C164.653 113.296 164.615 113.419 164.565 113.548L153.246 142.925C152.754 144.202 157.178 145.512 158.393 146.194ZM158.393 146.194L173.72 120.384M187.129 98.9168L190.573 93.1179M203.158 135.146L207.631 132.635M152.629 143.852C153.996 143.852 155.045 144.601 152.629 143.852ZM133.355 146.889L118.912 121.27M114.53 112.776L111.948 108.427M106.496 99.245L103.052 93.4461M162.489 184.011C163.673 183.346 166.772 186.84 167.675 187.839L185.151 205.549C194.204 215.565 203.24 218.816 208.332 231.196C211.563 239.05 211.834 252.067 211.856 254.567C211.858 254.768 211.646 254.897 211.456 254.816L205.086 252.062C204.908 251.985 204.705 252.099 204.684 252.287L203.947 259.072C203.927 259.26 203.723 259.374 203.545 259.297L197.223 256.564C197.022 256.477 196.8 256.633 196.821 256.846L197.403 262.666C197.423 262.864 197.238 263.018 197.045 262.955C194.817 262.226 183.769 258.256 176.523 249.052C168.884 239.348 164.31 219.884 163.823 217.739C163.792 217.605 163.754 217.481 163.704 217.352L152.629 189.363M202.297 195.754L206.77 198.265M216.214 203.566L222.178 206.914M132.954 186.618L118.051 209.63M124.223 175.1L97.0514 190.184M88.8891 195.41L84.416 197.921M74.9727 203.222L69.0085 206.57M158.393 186.987L165.345 198.265M167.675 202.142L169.971 205.549M217.658 107.427C228.667 102.978 240.276 104.911 242.58 105.363C242.78 105.402 242.861 105.625 242.742 105.787L239.245 110.544C239.117 110.718 239.229 110.961 239.448 110.984L246.329 111.69C246.522 111.71 246.64 111.908 246.561 112.081L243.71 118.315C243.631 118.488 243.748 118.686 243.942 118.706L250.875 119.417C251.081 119.439 251.199 119.654 251.093 119.827C249.789 121.982 242.86 133.123 236.023 138.354C225.246 146.6 215.749 145.022 202.758 149.295L171.712 159.507C170.416 159.933 169.296 159.113 168.612 157.961L165.694 152.71C164.993 151.529 164.262 149.453 165.345 148.586L190.255 128.648C190.364 128.56 190.46 128.472 190.556 128.37C192.081 126.75 206.052 112.117 217.658 107.427ZM86.4202 98.9166C81.8448 88.213 83.8327 76.9258 84.2977 74.6855C84.3381 74.491 84.5674 74.4125 84.7334 74.5279L89.6265 77.9284C89.8053 78.0526 90.0556 77.9432 90.0787 77.7307L90.8052 71.0406C90.8257 70.8522 91.0291 70.738 91.2072 70.8149L97.6187 73.5869C97.7967 73.6638 98.0002 73.5496 98.0207 73.3612L98.7527 66.6203C98.7745 66.42 98.9956 66.3056 99.1742 66.4078C101.39 67.6764 112.849 74.4135 118.229 81.0607C126.71 91.5389 125.088 100.773 129.482 113.403L139.985 143.589C140.423 144.849 139.022 143.936 137.837 144.601L131.806 147.989C130.592 148.671 129.644 150.833 128.753 149.78L108.246 125.56C108.156 125.454 108.065 125.36 107.96 125.267C106.294 123.785 91.2437 110.201 86.4202 98.9166ZM216.551 223.085C227.56 227.534 239.169 225.601 241.473 225.149C241.673 225.11 241.754 224.887 241.635 224.725L238.138 219.968C238.01 219.794 238.123 219.551 238.341 219.528L245.222 218.822C245.416 218.802 245.533 218.604 245.454 218.431L242.603 212.197C242.524 212.024 242.642 211.826 242.835 211.806L249.768 211.095C249.974 211.073 250.092 210.858 249.987 210.685C248.682 208.53 241.753 197.389 234.916 192.158C224.139 183.912 214.642 185.49 201.652 181.217L170.605 171.005C169.31 170.579 169.747 172.832 169.063 173.984L166.423 179.425C165.722 180.606 163.155 181.059 164.238 181.926L189.148 201.864C189.258 201.952 189.354 202.04 189.45 202.142C190.974 203.762 204.946 218.395 216.551 223.085ZM84.2724 235.517C79.697 246.221 81.6849 257.508 82.1499 259.748C82.1902 259.943 82.4196 260.021 82.5856 259.906L87.4786 256.506C87.6575 256.381 87.9078 256.491 87.9309 256.703L88.6574 263.393C88.6778 263.582 88.8813 263.696 89.0593 263.619L95.4709 260.847C95.6489 260.77 95.8524 260.884 95.8729 261.073L96.6049 267.814C96.6266 268.014 96.8478 268.128 97.0263 268.026C99.2421 266.757 110.701 260.02 116.081 253.373C124.562 242.895 122.94 233.661 127.334 221.031L137.837 190.845C138.275 189.585 137.295 188.504 136.111 187.839L130.255 184.011C129.04 183.329 127.497 183.601 126.605 184.654L106.098 208.874C106.008 208.98 105.917 209.074 105.812 209.167C104.146 210.649 89.0959 224.233 84.2724 235.517ZM57.4178 193.747C47.951 200.792 43.8681 211.533 43.1187 213.7C43.0536 213.888 43.2119 214.067 43.415 214.048L49.4012 213.482C49.62 213.461 49.7805 213.678 49.6912 213.873L46.8799 220.02C46.8008 220.193 46.9183 220.391 47.112 220.411L54.0901 221.127C54.2838 221.147 54.4013 221.345 54.3221 221.518L51.4896 227.711C51.4054 227.896 51.5381 228.102 51.7453 228.1C54.3166 228.079 67.705 227.815 75.7828 224.674C88.5159 219.723 91.8592 210.937 102.16 202.135L126.779 181.099C127.588 180.408 126.677 179.351 125.919 178.37C125.536 177.874 125.268 177.304 125.054 176.714L123.431 172.238C123.217 171.648 122.99 171.039 122.537 170.606C121.94 170.036 121.214 169.921 120.235 170.278L90.0212 181.283C89.8881 181.332 89.7615 181.368 89.6228 181.398C87.4174 181.872 67.3979 186.319 57.4178 193.747Z" stroke="#03363D" stroke-width="2"/>
<ellipse cx="146.01" cy="166.87" rx="16.2128" ry="15.7634" stroke="#03363D" stroke-width="2" stroke-linecap="round" stroke-dasharray="0.5 4"/>
<path d="M146.154 178.169C139.815 178.169 134.676 173.173 134.676 167.009C134.676 160.846 139.815 155.849 146.154 155.849" stroke="#03363D" stroke-width="2" stroke-linecap="round" stroke-dasharray="1 4"/>
<path d="M167.101 167.009C167.101 178.257 157.723 187.376 146.154 187.376C134.585 187.376 125.206 178.257 125.206 167.009C125.206 155.761 134.585 146.642 146.154 146.642C157.723 146.642 167.101 155.761 167.101 167.009Z" stroke="#03363D" stroke-width="2" stroke-linecap="round" stroke-dasharray="1 4"/>
<rect x="82" width="128" height="35" fill="white"/>
<path d="M103.286 27V15.84H100.532V14.616H107.39V15.84H104.636V27H103.286ZM111.279 27V14.616H117.129V15.804H112.629V20.142H116.535V21.33H112.629V25.812H117.129V27H111.279ZM126.878 27L125.33 22.014H125.078H122.756V27H121.406V14.616H125.186C126.038 14.616 126.674 14.772 127.094 15.084C127.514 15.396 127.784 15.81 127.904 16.326C128.036 16.842 128.102 17.508 128.102 18.324C128.102 19.224 128.006 19.968 127.814 20.556C127.634 21.132 127.238 21.54 126.626 21.78L128.3 27H126.878ZM124.844 20.844C125.408 20.844 125.828 20.754 126.104 20.574C126.38 20.394 126.554 20.136 126.626 19.8C126.71 19.452 126.752 18.96 126.752 18.324C126.752 17.676 126.71 17.184 126.626 16.848C126.554 16.512 126.386 16.254 126.122 16.074C125.858 15.894 125.438 15.804 124.862 15.804H122.756V20.844H124.844ZM138.545 27L137.681 23.562H133.883L133.037 27H131.687L134.927 14.616H136.691L139.931 27H138.545ZM135.827 16.254H135.737L134.207 22.374H137.357L135.827 16.254ZM143.858 14.616H147.53C148.37 14.616 149 14.784 149.42 15.12C149.84 15.444 150.11 15.876 150.23 16.416C150.362 16.944 150.428 17.64 150.428 18.504C150.428 19.344 150.362 20.034 150.23 20.574C150.11 21.102 149.84 21.534 149.42 21.87C149 22.206 148.37 22.374 147.53 22.374H145.208V27H143.858V14.616ZM147.17 21.204C147.746 21.204 148.166 21.108 148.43 20.916C148.706 20.724 148.88 20.448 148.952 20.088C149.036 19.716 149.078 19.188 149.078 18.504C149.078 17.808 149.036 17.28 148.952 16.92C148.88 16.548 148.712 16.272 148.448 16.092C148.184 15.9 147.764 15.804 147.188 15.804H145.208V21.204H147.17ZM154.565 27V14.616H160.415V15.804H155.915V20.142H159.821V21.33H155.915V25.812H160.415V27H154.565ZM171.514 14.616V21.618C171.514 23.226 171.442 24.396 171.298 25.128C171.154 25.86 170.842 26.382 170.362 26.694C169.894 26.994 169.126 27.144 168.058 27.144C166.99 27.144 166.216 26.994 165.736 26.694C165.256 26.382 164.944 25.86 164.8 25.128C164.656 24.384 164.584 23.214 164.584 21.618V14.616H165.934V22.23C165.934 23.37 165.976 24.18 166.06 24.66C166.144 25.14 166.324 25.476 166.6 25.668C166.888 25.86 167.374 25.956 168.058 25.956C168.742 25.956 169.222 25.86 169.498 25.668C169.786 25.476 169.966 25.14 170.038 24.66C170.122 24.18 170.164 23.37 170.164 22.23V14.616H171.514ZM178.06 27V15.84H175.306V14.616H182.164V15.84H179.41V27H178.06ZM191.044 27L190.18 23.562H186.382L185.536 27H184.186L187.426 14.616H189.19L192.43 27H191.044ZM188.326 16.254H188.236L186.706 22.374H189.856L188.326 16.254Z" fill="#03363D"/>
</svg>
