<svg width="510" height="42" viewBox="0 0 510 42" fill="none" xmlns="http://www.w3.org/2000/svg">
<path d="M206.68 29V16.08H203.42V15.24H210.84V16.08H207.6V29H206.68ZM212.841 29V15.24H219.161V16.08H213.781V21.62H218.481V22.46H213.781V28.16H219.161V29H212.841ZM227.854 29L226.014 23.18C225.894 23.1933 225.721 23.2 225.494 23.2H222.394V29H221.474V15.24H225.594C226.514 15.24 227.194 15.4133 227.634 15.76C228.074 16.1067 228.354 16.5533 228.474 17.1C228.594 17.6467 228.654 18.3533 228.654 19.22C228.654 20.2467 228.541 21.0733 228.314 21.7C228.101 22.3267 227.634 22.76 226.914 23L228.834 29H227.854ZM225.414 22.36C226.107 22.36 226.621 22.24 226.954 22C227.287 21.76 227.501 21.4267 227.594 21C227.687 20.5733 227.734 19.98 227.734 19.22C227.734 18.46 227.687 17.8667 227.594 17.44C227.501 17.0133 227.294 16.68 226.974 16.44C226.654 16.2 226.154 16.08 225.474 16.08H222.394V22.36H225.414ZM238.276 29L237.076 24.76H232.436L231.256 29H230.316L234.236 15.24H235.316L239.216 29H238.276ZM234.796 16.66H234.696L232.656 23.92H236.836L234.796 16.66ZM241.279 15.24H245.239C246.159 15.24 246.839 15.4267 247.279 15.8C247.732 16.16 248.019 16.6267 248.139 17.2C248.259 17.76 248.319 18.5 248.319 19.42C248.319 20.3133 248.252 21.0533 248.119 21.64C247.999 22.2133 247.712 22.6867 247.259 23.06C246.805 23.42 246.125 23.6 245.219 23.6H242.199V29H241.279V15.24ZM245.119 22.76C245.799 22.76 246.305 22.6333 246.639 22.38C246.972 22.1267 247.185 21.7733 247.279 21.32C247.372 20.8667 247.419 20.2333 247.419 19.42C247.419 18.6067 247.372 17.9733 247.279 17.52C247.185 17.0667 246.972 16.7133 246.639 16.46C246.319 16.2067 245.812 16.08 245.119 16.08H242.199V22.76H245.119ZM250.595 29V15.24H256.915V16.08H251.535V21.62H256.235V22.46H251.535V28.16H256.915V29H250.595ZM266.608 15.24V23.1C266.608 24.86 266.528 26.14 266.368 26.94C266.221 27.74 265.888 28.3133 265.368 28.66C264.861 28.9933 264.028 29.16 262.868 29.16C261.708 29.16 260.868 28.9933 260.348 28.66C259.828 28.3133 259.488 27.74 259.328 26.94C259.181 26.14 259.108 24.86 259.108 23.1V15.24H260.028V23.72C260.028 25.0933 260.081 26.08 260.188 26.68C260.308 27.28 260.561 27.7067 260.948 27.96C261.335 28.2 261.975 28.32 262.868 28.32C263.761 28.32 264.401 28.2 264.788 27.96C265.175 27.7067 265.421 27.28 265.528 26.68C265.635 26.08 265.688 25.0933 265.688 23.72V15.24H266.608ZM271.719 29V16.08H268.459V15.24H275.879V16.08H272.639V29H271.719ZM283.413 29L282.213 24.76H277.573L276.393 29H275.453L279.373 15.24H280.453L284.353 29H283.413ZM279.933 16.66H279.833L277.793 23.92H281.973L279.933 16.66Z" fill="#03363D"/>
<path d="M21.0341 26.1594C18.7507 26.1594 16.8995 24.3235 16.8995 22.0588C16.8995 19.7941 18.7507 17.9581 21.0341 17.9581M21.0341 26.1594L20.1375 26.0627C19.8939 26.0627 19.6884 25.9499 19.6483 26.1839L18.7275 31.5662C18.7235 31.5899 18.7181 31.6116 18.7107 31.6345C18.5925 31.9987 17.5426 35.3175 17.8248 37.4252C18.0924 39.4244 19.3989 40.9565 19.6689 41.2547V41.2547C19.7079 41.2978 19.7857 41.2416 19.8439 41.2418L22.4645 41.2471C22.5259 41.2472 22.6135 41.2967 22.6443 41.2436V41.2436C22.8642 40.8652 23.9855 38.8814 24.201 37.4252C24.5405 35.1297 23.4723 33.8759 23.0054 31.6018L21.8896 26.1666C21.843 25.9398 21.2716 26.1594 21.0341 26.1594ZM21.0341 26.1594C21.7903 26.1594 22.4991 25.9581 23.1089 25.6065C24.3406 24.8964 25.1687 23.5735 25.1687 22.0588C25.1687 19.7941 23.3176 17.9581 21.0341 17.9581M21.0341 17.9581L22.1083 18.1037M21.0341 17.9581C20.7906 17.9581 19.907 18.3204 19.867 18.0864L18.9462 12.7041C18.9421 12.6804 18.9368 12.6587 18.9294 12.6358C18.8112 12.2716 17.7612 8.95276 18.0434 6.84515C18.3111 4.84592 19.6176 3.31378 19.8875 3.01562M31.0305 19.79L25.4355 20.7034C25.1953 20.7424 25.1188 21.1831 25.1188 21.4203L25.1526 22.4227C25.1526 22.6541 25.185 22.8415 25.4178 22.8868L30.9969 23.9739C33.3313 24.4287 34.6183 25.4694 36.9746 25.1385C38.4694 24.9287 40.5057 23.8363 40.8942 23.6221V23.6221C40.9471 23.5929 40.8979 23.506 40.8977 23.4456L40.8923 20.8953C40.8922 20.838 40.9491 20.7608 40.9055 20.7234V20.7234C40.5995 20.4605 39.0268 19.1877 36.9746 18.9269C34.8111 18.652 31.4043 19.6748 31.0305 19.79ZM31.0305 19.79C31.0548 19.786 31.007 19.7972 31.0305 19.79ZM1.02083 20.5578C1.32688 20.2949 2.89201 19.0421 4.9442 18.7813C7.10765 18.5064 10.5144 19.5293 10.8883 19.6444C10.9118 19.6516 10.9341 19.6568 10.9584 19.6608L16.4849 20.8266M1.02083 20.5578C0.994261 20.5806 0.99444 20.6411 1.02669 20.6553M1.02083 20.5578L1.02083 23.3C1.02083 23.3604 0.971643 23.4473 1.02455 23.4765V23.4765C1.41303 23.6907 3.44939 24.7831 4.9442 24.9929C7.30051 25.3238 8.58745 24.2831 10.9219 23.8283L16.501 22.7412C16.7338 22.6959 16.8995 22.4971 16.8995 22.2657V21.0365C16.8995 20.7993 16.7251 20.8656 16.4849 20.8266M16.4849 20.8266L11.2398 18.9123C11.2167 18.9039 11.1948 18.8975 11.1707 18.8923C10.7878 18.81 7.31251 18.0363 5.58 16.7445C3.9366 15.519 3.22782 13.6507 3.09772 13.2739V13.2739C3.07883 13.2192 3.16798 13.1815 3.19747 13.1317L4.59527 10.7691M16.4849 20.8266C16.713 20.9098 16.9693 20.8203 17.0911 20.6148L17.722 19.5502C17.8407 19.3499 17.7992 19.097 17.6209 18.9443L13.3471 15.2854C11.5589 13.7544 10.9785 12.2263 8.7681 11.365C7.36583 10.8187 5.04164 10.7728 4.59527 10.7691M4.55088 10.8367C4.53627 10.8047 4.5593 10.7688 4.59527 10.7691M29.9682 4.90074C29.5815 5.02747 27.6637 5.71796 26.4057 7.31895C25.0796 9.00674 24.2855 12.3924 24.201 12.7653C24.1956 12.7888 24.1891 12.8102 24.1804 12.8327L22.2154 17.9424C22.1742 18.0498 22.332 18.1584 22.5301 18.2554C22.9083 18.4407 23.274 18.6436 23.6026 18.9072L23.7871 19.0553C23.9928 19.2204 23.9709 19.2449 24.1476 19.0491V19.0491L27.9035 14.8856C29.475 13.1436 31.0436 12.5781 31.9277 10.4248C32.4885 9.05869 32.5356 6.79448 32.5394 6.35963V6.35963C32.54 6.29846 32.4387 6.29868 32.3855 6.26855L29.9682 4.90074ZM29.9682 4.90074C30.0018 4.88974 30.0339 4.9165 30.0304 4.95085M19.8875 3.01562C19.9109 2.98974 19.9524 2.99732 19.9671 3.02874M19.8875 3.01562L22.863 3.02665M22.7807 3.02303C22.8018 2.99469 22.8453 2.99616 22.863 3.02665M22.863 3.02665C23.0829 3.40511 24.2042 5.38891 24.4196 6.84515C24.7592 9.14065 23.691 10.3944 23.2241 12.6685L22.1083 18.1037M22.1083 18.1037C22.3457 18.1037 22.5277 18.2339 22.1083 18.1037ZM12.7556 4.67019C12.7594 4.63534 12.7978 4.61545 12.8288 4.63323M12.8288 4.63323C13.2134 4.85388 15.2027 6.02571 16.1367 7.18192C17.6089 9.00447 17.3273 10.6106 18.0901 12.8075L19.9134 18.0579C19.9894 18.2771 19.7461 18.1182 19.5405 18.2339L18.4936 18.8233C18.2827 18.942 18.1183 19.3179 17.9635 19.1347L14.4036 14.9221C14.388 14.9035 14.3722 14.8873 14.354 14.871C14.0647 14.6132 11.4521 12.2504 10.6147 10.2877C9.82044 8.42596 10.1655 6.4627 10.2463 6.07302V6.07302C10.2581 6.01592 10.3542 6.02743 10.405 5.9988L12.8288 4.63323ZM29.8188 38.8201C29.432 38.6933 27.5142 38.0028 26.2563 36.4019C24.9302 34.7141 24.1361 31.3284 24.0515 30.9555C24.0462 30.932 24.0396 30.9106 24.031 30.8881L22.1083 26.0197M29.8188 38.8201C29.8524 38.8311 29.8188 38.8201 29.881 38.77M29.8188 38.8201L32.39 37.3612M32.3206 37.4044C32.39 37.3612 32.3903 37.3962 32.39 37.3612M32.39 37.3612C32.3862 36.9263 32.3391 34.6621 31.7782 33.296C30.8942 31.1427 29.3256 30.5772 27.754 28.8352L24.7203 25.7547C24.5636 25.5809 24.0256 24.9732 23.8199 25.0889M9.94905 38.2898C9.86832 37.9001 9.44759 35.9095 10.2419 34.0477C11.0792 32.085 13.6919 29.7222 13.9811 29.4644C13.9993 29.4482 14.0151 29.4319 14.0308 29.4134L17.5907 25.2007C17.7454 25.0175 18.0134 24.9702 18.2243 25.0889L19.2408 25.7547C19.4464 25.8703 19.6166 26.0584 19.5405 26.2775L17.7173 31.528C16.9544 33.7249 17.236 35.331 15.7638 37.1535C14.8298 38.3097 12.8406 39.4816 12.4559 39.7022V39.7022C12.403 39.7326 12.3512 39.6474 12.2981 39.6174L9.94905 38.2898ZM9.94905 38.2898C9.95605 38.3236 9.92023 38.3099 9.94905 38.2898ZM3.09772 30.2528C3.22782 29.876 3.9366 28.0077 5.58 26.7822C7.31251 25.4904 10.7878 24.7167 11.1707 24.6343C11.1948 24.6292 11.2167 24.6228 11.2398 24.6144L16.4849 22.7001C16.4896 22.6984 16.4942 22.6968 16.4988 22.6952C16.8624 22.5703 17.0497 23.0688 17.1805 23.4303V23.4303C17.3114 23.7919 17.658 24.0778 17.6756 24.4619C17.6776 24.5063 17.6621 24.5471 17.6209 24.5824L13.3471 28.2413C11.5589 29.7723 10.9785 31.3004 8.7681 32.1617C7.36583 32.708 5.04164 32.7539 4.59527 32.7576V32.7576C4.53475 32.7581 4.53238 32.659 4.50138 32.607L3.09772 30.2528ZM3.09772 30.2528C3.08643 30.2855 3.06247 30.2561 3.09772 30.2528ZM33.3971 11.768C34.9114 11.1549 36.491 11.2386 37.2807 11.3389C37.5642 11.375 37.8065 11.5499 37.9515 11.796L39.1145 13.7704C39.1453 13.8227 39.2328 13.8729 39.2014 13.9249V13.9249C38.9749 14.2996 37.7721 16.2375 36.5852 17.1474C34.7144 18.5816 33.0657 18.3073 30.8106 19.0504L25.4211 20.8266C25.1962 20.9007 25.0016 20.7581 24.8829 20.5578L24.3764 19.6444C24.2546 19.4389 24.1277 19.0779 24.3157 18.9271L28.64 15.4591C28.6591 15.4438 28.6757 15.4285 28.6924 15.4107C28.957 15.1289 31.3824 12.5837 33.3971 11.768ZM33.205 31.8853C35.1161 32.6591 37.1314 32.3229 37.5314 32.2442V32.2442C37.5876 32.2332 37.5786 32.1386 37.6079 32.0893L38.922 29.8826C38.9531 29.8304 39.0408 29.7804 39.0093 29.7284V29.7284C38.7828 29.3537 37.58 27.4157 36.3931 26.5059C34.5223 25.0716 32.8736 25.346 30.6185 24.6028L25.229 22.8266C25.0041 22.7525 25.08 23.1444 24.9613 23.3448L24.5029 24.2911C24.3812 24.4965 23.9356 24.5754 24.1236 24.7262L28.4479 28.1942C28.467 28.2094 28.4836 28.2248 28.5003 28.2425C28.7649 28.5243 31.1903 31.0696 33.205 31.8853Z" stroke="#03363D"/>
<path d="M54.9839 21.76V20.94H58.3839V27.82C57.9173 27.9267 57.3906 28.0067 56.8039 28.06C56.2306 28.1267 55.7173 28.16 55.2639 28.16C54.0639 28.16 53.1839 27.9933 52.6239 27.66C52.0639 27.3133 51.6706 26.66 51.4439 25.7C51.2306 24.7267 51.1239 23.2 51.1239 21.12C51.1239 19.0533 51.2306 17.54 51.4439 16.58C51.6573 15.6067 52.0439 14.9467 52.6039 14.6C53.1773 14.2533 54.0706 14.08 55.2839 14.08C55.7773 14.08 56.3106 14.1133 56.8839 14.18C57.4706 14.2467 57.9573 14.3333 58.3439 14.44V15.24C57.9439 15.1467 57.4906 15.0733 56.9839 15.02C56.4906 14.9533 56.0839 14.92 55.7639 14.92C54.6039 14.92 53.7839 15.0267 53.3039 15.24C52.8373 15.4533 52.5039 15.98 52.3039 16.82C52.1173 17.66 52.0239 19.0933 52.0239 21.12C52.0239 22.9867 52.0973 24.34 52.2439 25.18C52.3906 26.0067 52.6773 26.5733 53.1039 26.88C53.5439 27.1733 54.2639 27.32 55.2639 27.32C55.5973 27.32 55.9839 27.3 56.4239 27.26C56.8639 27.22 57.2173 27.1667 57.4839 27.1V21.76H54.9839ZM68.0705 28L66.8705 23.76H62.2305L61.0505 28H60.1105L64.0305 14.24H65.1105L69.0105 28H68.0705ZM64.5905 15.66H64.4905L62.4505 22.92H66.6305L64.5905 15.66ZM71.0733 14.24H75.0933C76.24 14.24 77.04 14.54 77.4933 15.14C77.96 15.7267 78.1933 16.5733 78.1933 17.68C78.1933 18.6 78.0266 19.3333 77.6933 19.88C77.3733 20.4133 76.8533 20.76 76.1333 20.92V21C76.9866 21.16 77.56 21.54 77.8533 22.14C78.16 22.7267 78.3133 23.48 78.3133 24.4C78.3133 25.4933 78.08 26.3667 77.6133 27.02C77.16 27.6733 76.28 28 74.9733 28H71.0733V14.24ZM74.9133 20.6C75.6733 20.6 76.2533 20.3667 76.6533 19.9C77.0666 19.4333 77.2733 18.7467 77.2733 17.84C77.2733 16.84 77.1066 16.1333 76.7733 15.72C76.44 15.2933 75.82 15.08 74.9133 15.08H71.9933V20.6H74.9133ZM74.9533 27.16C75.86 27.16 76.4933 26.94 76.8533 26.5C77.2133 26.0467 77.3933 25.3133 77.3933 24.3C77.3933 23.3 77.2 22.5733 76.8133 22.12C76.44 21.6667 75.82 21.44 74.9533 21.44H71.9933V27.16H74.9533ZM87.3556 28L85.5156 22.18C85.3956 22.1933 85.2223 22.2 84.9956 22.2H81.8956V28H80.9756V14.24H85.0956C86.0156 14.24 86.6956 14.4133 87.1356 14.76C87.5756 15.1067 87.8556 15.5533 87.9756 16.1C88.0956 16.6467 88.1556 17.3533 88.1556 18.22C88.1556 19.2467 88.0423 20.0733 87.8156 20.7C87.6023 21.3267 87.1356 21.76 86.4156 22L88.3356 28H87.3556ZM84.9156 21.36C85.609 21.36 86.1223 21.24 86.4556 21C86.789 20.76 87.0023 20.4267 87.0956 20C87.189 19.5733 87.2356 18.98 87.2356 18.22C87.2356 17.46 87.189 16.8667 87.0956 16.44C87.0023 16.0133 86.7956 15.68 86.4756 15.44C86.1556 15.2 85.6556 15.08 84.9756 15.08H81.8956V21.36H84.9156ZM90.9775 28V14.24H91.8975V28H90.9775ZM95.0772 28V14.24H101.397V15.08H96.0172V20.62H100.717V21.46H96.0172V27.16H101.397V28H95.0772ZM103.71 28V14.24H104.65V27.16H109.45V28H103.71ZM118.168 28L116.968 23.76H112.328L111.148 28H110.208L114.128 14.24H115.208L119.108 28H118.168ZM114.688 15.66H114.588L112.548 22.92H116.728L114.688 15.66ZM131.52 28L127.96 21.44H125.88V28H124.96V14.24H125.88V20.6H127.96L131.52 14.24H132.5L128.74 21L132.56 28H131.52ZM141.41 28L140.21 23.76H135.57L134.39 28H133.45L137.37 14.24H138.45L142.35 28H141.41ZM137.93 15.66H137.83L135.79 22.92H139.97L137.93 15.66ZM147.139 28.16C146.619 28.16 146.053 28.1333 145.439 28.08C144.826 28.04 144.293 27.9867 143.839 27.92V27.06C144.306 27.1267 144.826 27.1867 145.399 27.24C145.986 27.2933 146.473 27.32 146.859 27.32C147.406 27.32 147.846 27.28 148.179 27.2C148.526 27.12 148.826 26.98 149.079 26.78C149.319 26.5933 149.473 26.3067 149.539 25.92C149.619 25.52 149.659 24.9867 149.659 24.32C149.659 23.44 149.626 22.84 149.559 22.52C149.506 22.1867 149.366 21.9533 149.139 21.82C148.926 21.6867 148.519 21.5733 147.919 21.48L145.359 21.08C144.799 21 144.386 20.8267 144.119 20.56C143.866 20.28 143.706 19.9333 143.639 19.52C143.573 19.1067 143.539 18.5133 143.539 17.74C143.539 16.42 143.813 15.48 144.359 14.92C144.906 14.36 145.833 14.08 147.139 14.08C147.713 14.08 148.266 14.1067 148.799 14.16C149.346 14.2 149.773 14.2667 150.079 14.36V15.16C149.693 15.0933 149.239 15.04 148.719 15C148.213 14.9467 147.746 14.92 147.319 14.92C146.679 14.92 146.173 14.98 145.799 15.1C145.426 15.2067 145.146 15.38 144.959 15.62C144.759 15.8467 144.626 16.1333 144.559 16.48C144.493 16.8133 144.459 17.2467 144.459 17.78C144.459 18.4733 144.493 18.98 144.559 19.3C144.626 19.6067 144.746 19.8267 144.919 19.96C145.106 20.08 145.406 20.1733 145.819 20.24L148.199 20.6C148.853 20.7067 149.346 20.8533 149.679 21.04C150.013 21.2133 150.259 21.5333 150.419 22C150.486 22.2 150.526 22.4667 150.539 22.8C150.566 23.1333 150.579 23.6 150.579 24.2C150.579 25.1867 150.473 25.9667 150.259 26.54C150.059 27.1 149.713 27.5133 149.219 27.78C148.726 28.0333 148.033 28.16 147.139 28.16ZM152.185 28V27.2L158.185 15.08H152.345V14.24H159.245V15.02L153.265 27.16H159.365V28H152.185ZM168.903 14.24V22.1C168.903 23.86 168.823 25.14 168.663 25.94C168.516 26.74 168.183 27.3133 167.663 27.66C167.156 27.9933 166.323 28.16 165.163 28.16C164.003 28.16 163.163 27.9933 162.643 27.66C162.123 27.3133 161.783 26.74 161.623 25.94C161.476 25.14 161.403 23.86 161.403 22.1V14.24H162.323V22.72C162.323 24.0933 162.376 25.08 162.483 25.68C162.603 26.28 162.856 26.7067 163.243 26.96C163.629 27.2 164.269 27.32 165.163 27.32C166.056 27.32 166.696 27.2 167.083 26.96C167.469 26.7067 167.716 26.28 167.823 25.68C167.929 25.08 167.983 24.0933 167.983 22.72V14.24H168.903ZM171.894 14.24H175.914C177.06 14.24 177.86 14.54 178.314 15.14C178.78 15.7267 179.014 16.5733 179.014 17.68C179.014 18.6 178.847 19.3333 178.514 19.88C178.194 20.4133 177.674 20.76 176.954 20.92V21C177.807 21.16 178.38 21.54 178.674 22.14C178.98 22.7267 179.134 23.48 179.134 24.4C179.134 25.4933 178.9 26.3667 178.434 27.02C177.98 27.6733 177.1 28 175.794 28H171.894V14.24ZM175.734 20.6C176.494 20.6 177.074 20.3667 177.474 19.9C177.887 19.4333 178.094 18.7467 178.094 17.84C178.094 16.84 177.927 16.1333 177.594 15.72C177.26 15.2933 176.64 15.08 175.734 15.08H172.814V20.6H175.734ZM175.774 27.16C176.68 27.16 177.314 26.94 177.674 26.5C178.034 26.0467 178.214 25.3133 178.214 24.3C178.214 23.3 178.02 22.5733 177.634 22.12C177.26 21.6667 176.64 21.44 175.774 21.44H172.814V27.16H175.774ZM188.676 28L187.476 23.76H182.836L181.656 28H180.716L184.636 14.24H185.716L189.616 28H188.676ZM185.196 15.66H185.096L183.056 22.92H187.236L185.196 15.66Z" fill="#03363D"/>
<ellipse cx="196.497" cy="21.5" rx="1.49706" ry="1.5" fill="#03363D"/>
</svg>
