<svg width="32" height="32" viewBox="0 0 32 32" fill="none" xmlns="http://www.w3.org/2000/svg">
<path d="M11.6531 12.02L19.7143 12.029" stroke="#03363D" stroke-width="0.5"/>
<path d="M23.7347 15.6122L22.7551 18.5509M23.7347 15.6122L22.7551 13.3264M23.7347 15.6122H26.3469M22.7551 18.5509L24.3878 20.5101M22.7551 18.5509L19.8163 19.8571M11.6531 19.8571H15.7347M11.6531 19.8571V22.4693M11.6531 19.8571L9.36734 18.5509M8.38775 16.2652L9.36734 18.5509M8.38775 16.2652H5.44897M8.38775 16.2652L9.36734 13.653M11.6531 9.08154V12.0203L9.36734 13.653M15.898 12.0203V9.08154M19.8163 9.08154V12.0203L22.7551 13.3264M22.7551 13.3264L23.7347 11.0407M19.8163 19.8571V22.4693M19.8163 19.8571H15.7347M15.7347 19.8571V22.4693M9.36734 18.5509L8.06122 20.1836M9.36734 13.653L8.06122 11.6938" stroke="#03363D" stroke-width="0.5"/>
<circle cx="16" cy="16" r="15.75" stroke="#03363D" stroke-width="0.5"/>
<path d="M5 27L26 4" stroke="#03363D" stroke-width="0.5"/>
</svg>
