<svg width="38" height="34" viewBox="0 0 38 34" fill="none" xmlns="http://www.w3.org/2000/svg">
<path d="M34.3206 21.7042C31.7326 29.1444 23.6451 34.3213 16.528 32.7033C9.41098 31.0853 3.73588 26.2184 3.91145 15.8812M3.91145 15.8812L6.49947 18.4687M3.91145 15.8812L0.999936 18.4687" stroke="#03363D" stroke-width="0.5"/>
<path d="M13.5218 15.5739L18.619 7.00018L24.0148 15.2509C25.7224 17.8621 25.21 21.3502 22.8412 23.3808C20.4506 25.4301 16.8812 25.3614 14.5903 23.2013C12.4921 21.2227 12.048 18.0529 13.5218 15.5739Z" stroke="#03363D" stroke-width="0.5"/>
<path d="M4.23505 12.2963C6.82306 4.85613 14.9106 -0.320707 22.0276 1.29728C29.1447 2.91528 34.8198 7.78217 34.6442 18.1194M34.6442 18.1194L32.0562 15.5318M34.6442 18.1194L37.5557 15.5318" stroke="#03363D" stroke-width="0.5"/>
</svg>
