<svg width="32" height="33" viewBox="0 0 32 33" fill="none" xmlns="http://www.w3.org/2000/svg">
<circle cx="16" cy="16.7528" r="15.75" stroke="#03363D" stroke-width="0.5"/>
<path d="M2 19.9805H14.0909L16 22.8441L18.2273 19.9805H30" stroke="#03363D" stroke-width="0.5"/>
<path d="M3.3409 22.2078C3.3409 22.4212 3.16793 22.5942 2.95454 22.5942C2.74115 22.5942 2.56818 22.4212 2.56818 22.2078C2.56818 21.9945 2.74115 21.8215 2.95454 21.8215C3.16793 21.8215 3.3409 21.9945 3.3409 22.2078Z" stroke="#03363D" stroke-width="0.5"/>
<path d="M5.24999 24.1165C5.24999 24.3299 5.07702 24.5029 4.86363 24.5029C4.65024 24.5029 4.47726 24.3299 4.47726 24.1165C4.47726 23.9031 4.65024 23.7302 4.86363 23.7302C5.07702 23.7302 5.24999 23.9031 5.24999 24.1165Z" stroke="#03363D" stroke-width="0.5"/>
<path d="M7.79546 24.1165C7.79546 24.3299 7.62249 24.5029 7.4091 24.5029C7.19571 24.5029 7.02274 24.3299 7.02274 24.1165C7.02274 23.9031 7.19571 23.7302 7.4091 23.7302C7.62249 23.7302 7.79546 23.9031 7.79546 24.1165Z" stroke="#03363D" stroke-width="0.5"/>
<path d="M10.3409 24.1165C10.3409 24.3299 10.1679 24.5029 9.95454 24.5029C9.74115 24.5029 9.56818 24.3299 9.56818 24.1165C9.56818 23.9031 9.74115 23.7302 9.95454 23.7302C10.1679 23.7302 10.3409 23.9031 10.3409 24.1165Z" stroke="#03363D" stroke-width="0.5"/>
<path d="M12.8863 24.1165C12.8863 24.3299 12.7134 24.5029 12.5 24.5029C12.2866 24.5029 12.1136 24.3299 12.1136 24.1165C12.1136 23.9031 12.2866 23.7302 12.5 23.7302C12.7134 23.7302 12.8863 23.9031 12.8863 24.1165Z" stroke="#03363D" stroke-width="0.5"/>
<path d="M15.4318 24.1165C15.4318 24.3299 15.2589 24.5029 15.0455 24.5029C14.8321 24.5029 14.6591 24.3299 14.6591 24.1165C14.6591 23.9031 14.8321 23.7302 15.0455 23.7302C15.2589 23.7302 15.4318 23.9031 15.4318 24.1165Z" stroke="#03363D" stroke-width="0.5"/>
<path d="M17.9773 24.1165C17.9773 24.3299 17.8043 24.5029 17.5909 24.5029C17.3775 24.5029 17.2046 24.3299 17.2046 24.1165C17.2046 23.9031 17.3775 23.7302 17.5909 23.7302C17.8043 23.7302 17.9773 23.9031 17.9773 24.1165Z" stroke="#03363D" stroke-width="0.5"/>
<path d="M20.5227 24.1165C20.5227 24.3299 20.3498 24.5029 20.1364 24.5029C19.923 24.5029 19.75 24.3299 19.75 24.1165C19.75 23.9031 19.923 23.7302 20.1364 23.7302C20.3498 23.7302 20.5227 23.9031 20.5227 24.1165Z" stroke="#03363D" stroke-width="0.5"/>
<path d="M23.0682 24.1165C23.0682 24.3299 22.8952 24.5029 22.6818 24.5029C22.4684 24.5029 22.2954 24.3299 22.2954 24.1165C22.2954 23.9031 22.4684 23.7302 22.6818 23.7302C22.8952 23.7302 23.0682 23.9031 23.0682 24.1165Z" stroke="#03363D" stroke-width="0.5"/>
<path d="M25.6136 24.1165C25.6136 24.3299 25.4406 24.5029 25.2272 24.5029C25.0139 24.5029 24.8409 24.3299 24.8409 24.1165C24.8409 23.9031 25.0139 23.7302 25.2272 23.7302C25.4406 23.7302 25.6136 23.9031 25.6136 24.1165Z" stroke="#03363D" stroke-width="0.5"/>
<path d="M5.88634 22.2078C5.88634 22.4212 5.71337 22.5942 5.49998 22.5942C5.28659 22.5942 5.11362 22.4212 5.11362 22.2078C5.11362 21.9945 5.28659 21.8215 5.49998 21.8215C5.71337 21.8215 5.88634 21.9945 5.88634 22.2078Z" stroke="#03363D" stroke-width="0.5"/>
<path d="M8.43185 22.2078C8.43185 22.4212 8.25887 22.5942 8.04548 22.5942C7.83209 22.5942 7.65912 22.4212 7.65912 22.2078C7.65912 21.9945 7.83209 21.8215 8.04548 21.8215C8.25887 21.8215 8.43185 21.9945 8.43185 22.2078Z" stroke="#03363D" stroke-width="0.5"/>
<path d="M10.9773 22.2078C10.9773 22.4212 10.8043 22.5942 10.5909 22.5942C10.3775 22.5942 10.2046 22.4212 10.2046 22.2078C10.2046 21.9945 10.3775 21.8215 10.5909 21.8215C10.8043 21.8215 10.9773 21.9945 10.9773 22.2078Z" stroke="#03363D" stroke-width="0.5"/>
<path d="M13.5227 22.2078C13.5227 22.4212 13.3498 22.5942 13.1364 22.5942C12.923 22.5942 12.75 22.4212 12.75 22.2078C12.75 21.9945 12.923 21.8215 13.1364 21.8215C13.3498 21.8215 13.5227 21.9945 13.5227 22.2078Z" stroke="#03363D" stroke-width="0.5"/>
<path d="M19.25 22.2078C19.25 22.4212 19.077 22.5942 18.8636 22.5942C18.6502 22.5942 18.4773 22.4212 18.4773 22.2078C18.4773 21.9945 18.6502 21.8215 18.8636 21.8215C19.077 21.8215 19.25 21.9945 19.25 22.2078Z" stroke="#03363D" stroke-width="0.5"/>
<path d="M21.7955 22.2078C21.7955 22.4212 21.6225 22.5942 21.4091 22.5942C21.1957 22.5942 21.0227 22.4212 21.0227 22.2078C21.0227 21.9945 21.1957 21.8215 21.4091 21.8215C21.6225 21.8215 21.7955 21.9945 21.7955 22.2078Z" stroke="#03363D" stroke-width="0.5"/>
<path d="M24.3409 22.2078C24.3409 22.4212 24.1679 22.5942 23.9545 22.5942C23.7412 22.5942 23.5682 22.4212 23.5682 22.2078C23.5682 21.9945 23.7412 21.8215 23.9545 21.8215C24.1679 21.8215 24.3409 21.9945 24.3409 22.2078Z" stroke="#03363D" stroke-width="0.5"/>
<path d="M26.8864 22.2078C26.8864 22.4212 26.7134 22.5942 26.5 22.5942C26.2866 22.5942 26.1136 22.4212 26.1136 22.2078C26.1136 21.9945 26.2866 21.8215 26.5 21.8215C26.7134 21.8215 26.8864 21.9945 26.8864 22.2078ZM29.4318 22.2078C29.4318 22.4212 29.2589 22.5942 29.0455 22.5942C28.8321 22.5942 28.6591 22.4212 28.6591 22.2078C28.6591 21.9945 28.8321 21.8215 29.0455 21.8215C29.2589 21.8215 29.4318 21.9945 29.4318 22.2078Z" stroke="#03363D" stroke-width="0.5"/>
<path d="M12.4998 17.7531V17.7531C15.0127 17.1773 17.6233 17.1773 20.1362 17.7531V17.7531" stroke="#03363D" stroke-width="0.5"/>
<path d="M11.5452 16.0031V16.0031C14.6267 14.8733 18.0091 14.8733 21.0907 16.0031V16.0031" stroke="#03363D" stroke-width="0.5"/>
<path d="M10.5909 14.2528V14.2528C14.1068 12.1043 18.5295 12.1043 22.0455 14.2528V14.2528" stroke="#03363D" stroke-width="0.5"/>
<path d="M27.8409 24.1165C27.8409 24.3299 27.6679 24.5029 27.4545 24.5029C27.2412 24.5029 27.0682 24.3299 27.0682 24.1165C27.0682 23.9031 27.2412 23.7302 27.4545 23.7302C27.6679 23.7302 27.8409 23.9031 27.8409 24.1165Z" stroke="#03363D" stroke-width="0.5"/>
</svg>
