<svg width="30" height="33" viewBox="0 0 30 33" fill="none" xmlns="http://www.w3.org/2000/svg">
<path d="M13.6087 9.97631C15.1966 7.8776 16.2194 7.25544 18.4872 7.99984C18.5465 8.03682 18.6046 8.07362 18.6616 8.11025C22.0884 10.3133 21.438 15.3223 19.341 18.815V18.815C17.95 21.1319 15.8873 23.1838 13.4027 24.2468C10.8821 25.3253 10.0573 24.0234 9.41479 21.0822C8.96929 20.71 8.71064 20.5027 7.53183 20.2351C7.53183 23.4746 7.53183 24.9873 7.53183 27.9528" stroke="#03363D" stroke-width="0.5"/>
<path d="M5.04977 27.9528C5.15432 23.0227 4.7455 18.6288 6.07684 17.9764C6.91747 17.4416 8.02494 17.7465 10.0152 18.6749C10.8047 19.0432 11.553 19.2059 12.1471 18.5687V18.5687C13.2106 17.4283 13.094 15.3966 12.8868 13.8511C12.8099 13.2778 12.7913 12.7752 12.8384 12.2352C10.1502 10.3865 9.27891 8.58285 7.95981 5.08224" stroke="#03363D" stroke-width="0.5"/>
<path d="M10.2707 4.70578C10.9934 7.21134 11.6814 8.3979 13.6087 9.97637" stroke="#03363D" stroke-width="0.5"/>
<path d="M21.6806 18.8293V18.8293C20.8241 20.4508 19.7206 21.8969 18.4171 23.1061V23.1061" stroke="#03363D" stroke-width="0.5"/>
<path d="M22.7639 18.9177V18.9177C21.8706 21.0755 20.4619 22.9217 18.6845 24.2637V24.2637" stroke="#03363D" stroke-width="0.5"/>
<path d="M23.8471 19.0064V19.0064C23.1501 21.8358 21.3647 24.1755 18.9518 25.4216V25.4216" stroke="#03363D" stroke-width="0.5"/>
<path d="M10.6118 16.573V16.573C10.5733 15.5152 10.9101 14.4979 11.5579 13.7148V13.7148" stroke="#03363D" stroke-width="0.5"/>
<path d="M9.42792 16.5038V16.5038C9.13668 15.1449 9.59308 13.766 10.6105 12.931V12.931" stroke="#03363D" stroke-width="0.5"/>
<path d="M8.24393 16.4344V16.4344C7.46261 14.7874 8.10176 12.8564 9.66301 12.147V12.147" stroke="#03363D" stroke-width="0.5"/>
<path d="M28.8503 16.7528C28.8503 25.4742 22.4261 32.5028 14.5502 32.5028C6.67422 32.5028 0.25 25.4742 0.25 16.7528C0.25 8.03148 6.67422 1.00284 14.5502 1.00284C22.4261 1.00284 28.8503 8.03148 28.8503 16.7528Z" stroke="#03363D" stroke-width="0.5"/>
</svg>
