<svg width="32" height="33" viewBox="0 0 32 33" fill="none" xmlns="http://www.w3.org/2000/svg">
<path d="M8.14035 7.91068L10.9474 8.47209M10.9474 8.47209L11.5088 5.52472M10.9474 8.47209L9.54386 6.22647" stroke="#03363D" stroke-width="0.5"/>
<path d="M17.6842 7.20909L17.4035 8.8933M17.4035 8.8933L20.3509 9.45471M17.4035 8.8933L19.6491 7.48979M23.1579 14.788L21.4737 14.2266L22.8772 13.3845V12.6828" stroke="#03363D" stroke-width="0.5"/>
<path d="M5.05264 12.5423L6.3158 14.0862M6.3158 14.0862L5.05264 15.63M6.3158 14.0862H4.77194M6.3158 14.0862L8.28071 14.2265M11.3684 22.0862L11.0877 19.8405L8.14036 20.823M11.3684 22.0862L10.386 23.4897M11.3684 22.0862L12.0702 23.209M16.9825 19.1388C17.2632 19.8405 19.2055 23.6704 20.4912 25.4546C21.2366 26.4889 23.4386 26.2967 23.4386 26.2967M23.4386 26.2967L25.193 24.5423M23.4386 26.2967H27.2281M23.4386 26.2967L25.5439 28.5423M26.9474 22.7879L25.193 24.5423M25.193 24.5423V22.2265" stroke="#03363D" stroke-width="0.5"/>
<path d="M10.9474 8.47198L12.5464 10.0711C13.4006 10.9252 14.7529 11.0213 15.7193 10.2965V10.2965L17.5439 8.89304L17.124 9.78866C15.8576 12.4905 18.6883 13.1562 21.4737 14.2264V14.2264C21.4737 14.2264 17.8576 14.0141 16.9825 15.6299C16.3017 16.8866 16.9825 19.1387 16.9825 19.1387C16.9825 19.1387 15.7615 17.0955 14.3158 17.0334C12.5695 16.9584 10.9474 19.9808 10.9474 19.9808C10.9474 19.9808 12.7067 17.0975 11.7895 15.6299C10.9803 14.3351 8.14035 14.2264 8.14035 14.2264C8.14035 14.2264 11.3546 14.0508 12.0702 12.5422C12.7768 11.0524 10.9474 8.47198 10.9474 8.47198Z" stroke="#03363D" stroke-width="0.5"/>
<circle cx="14.3158" cy="13.9456" r="0.872807" stroke="#03363D" stroke-width="0.5"/>
<circle cx="16" cy="16.7528" r="15.75" stroke="#03363D" stroke-width="0.5"/>
</svg>
