<svg width="40" height="40" viewBox="0 0 40 40" fill="none" xmlns="http://www.w3.org/2000/svg">
<path d="M9.14286 25.1428L9.2131 25.2201C10.4238 26.5518 11.8897 27.6267 13.5238 28.3809V28.3809M8 27.2381L8.52674 27.7243C9.81468 28.9132 11.3164 29.8469 12.9524 30.4762V30.4762" stroke="#03363D" stroke-width="0.5"/>
<path d="M20.1905 7.42859C20.1905 7.42859 21.9223 8.23228 22.6667 9.14288C23.3407 9.96744 23.8095 11.619 23.8095 11.619M22.6667 5.90479L22.8334 6.07155C24.0922 7.33033 24.9604 8.92609 25.3333 10.6668V10.6668M16.7619 8.76186L26.6667 18.2857L25.7971 14.2857C25.7971 11.619 26.866 10.7084 27.6191 10.6668C28.3721 10.6251 29.9048 17.3334 31.6191 21.1429C32.1408 24.4933 31.1709 26.2804 28.381 28.7619C26.2652 31.052 24.999 31.5641 21.3334 31.2381C15.952 27.5542 13.1138 24.7676 8.19051 19.2381C7.98645 18.6595 7.87431 18.3346 8.57146 17.5238C9.09239 17.3247 9.38399 17.3405 9.90479 17.5238L14.2857 21.9047C16.0206 22.0622 11.9755 18.3755 8.57146 14.6666C8.39671 14.0209 8.45271 13.6837 8.95241 13.1428C9.62194 12.7011 9.99717 12.7992 10.6667 13.1428L16.5662 19.0423C16.6743 19.1504 16.8496 19.1504 16.9577 19.0423V19.0423C17.0616 18.9384 17.0662 18.7714 16.9683 18.6619L10.6667 11.619C10.6667 11.619 10.0703 10.0841 10.6667 9.52383V9.52383C11.2365 8.98856 12.1393 9.43598 12.7236 9.95538L13.5238 10.6668L19.0382 16.5486C19.1535 16.6716 19.341 16.6933 19.4814 16.5997V16.5997C19.6551 16.4839 19.687 16.2415 19.5492 16.0847L14.2857 10.0952C14.2344 9.47229 14.0624 9.14749 14.8572 8.38091C15.5829 8.08546 16.0018 8.20876 16.7619 8.76186Z" stroke="#03363D" stroke-width="0.5"/>
<circle cx="20" cy="20" r="19.75" stroke="#03363D" stroke-width="0.5"/>
</svg>
