<svg width="32" height="32" viewBox="0 0 32 32" fill="none" xmlns="http://www.w3.org/2000/svg">
<path d="M4.5 27L8.5 23M20.5 10.5L26.5 4" stroke="#03363D" stroke-width="0.5"/>
<circle cx="16" cy="16" r="15.75" stroke="#03363D" stroke-width="0.5"/>
<path d="M22.5 15.5C19.2858 8 19.0311 10.8728 18.5 4.5C13.9754 7.55689 13.7742 10.3952 13.5 15.5C11.7152 16.0835 11.1747 14.9473 10.5 12C8.18991 12.5682 7.00005 17 8.00002 21.5C9 26 14 27 17.5 27C21 27 25.7142 23 22.5 15.5Z" stroke="#03363D" stroke-width="0.5"/>
<path d="M18.8255 21.8143C17.7021 20.686 17.2883 19.8224 16.8276 18C15.1839 19.1105 15.1109 20.1415 15.0113 21.9959C14.3629 22.2078 14.1665 21.7951 13.9215 20.7245C13.0823 20.9309 12.9512 21.847 13.0133 24.1755C13.846 25.6935 14.6423 26.0715 16.4643 26.1734C18.5558 25.3153 19.3963 24.5948 18.8255 21.8143Z" stroke="#03363D" stroke-width="0.5"/>
</svg>
