<svg width="32" height="33" viewBox="0 0 32 33" fill="none" xmlns="http://www.w3.org/2000/svg">
<path d="M24.4162 11.1436L24.2423 11.0106L24.0875 11.1654L19.127 16.126L19.7074 13.1328L19.8091 12.6084L19.3413 12.8662L15.6717 14.8888L15.5034 14.7204L21.5729 8.65089L21.7277 8.49609L21.5947 8.32222C20.9585 7.49053 20.9953 6.3604 21.6808 5.67495C22.4317 4.924 23.7194 4.95188 24.5579 5.79037C24.9807 6.21314 25.1988 6.75436 25.2123 7.28252L25.2184 7.51996L25.4558 7.52603C25.984 7.53954 26.5253 7.75763 26.9481 8.18042C27.7866 9.01892 27.8144 10.3066 27.0635 11.0576C26.378 11.743 25.2479 11.7798 24.4162 11.1436Z" stroke="#03363D" stroke-width="0.5"/>
<path d="M11.1197 24.1945L10.9649 24.3493L11.0979 24.5232C11.7392 25.3614 11.7022 26.5006 11.0111 27.1917C10.254 27.9488 8.95598 27.9205 8.11088 27.0754C7.68476 26.6493 7.46493 26.1038 7.4513 25.5714L7.44522 25.3339L7.20778 25.3278C6.67538 25.3142 6.12984 25.0944 5.70371 24.6683C4.85862 23.8232 4.83038 22.5251 5.58747 21.768C6.27852 21.077 7.41774 21.04 8.25599 21.6812L8.42987 21.8142L8.58467 21.6594L14.6989 15.5452L15.0905 15.9368L15.2095 16.0558L15.3645 15.9904L17.9427 14.9027L17.3564 17.9578L11.1197 24.1945Z" stroke="#03363D" stroke-width="0.5"/>
<path d="M16.3593 12.5687V12.5687C14.7788 13.5169 13.4561 14.8397 12.5078 16.4201V16.4201" stroke="#03363D" stroke-width="0.5"/>
<path d="M15.8778 11.1245V11.1245C13.7144 12.0517 11.9906 13.7755 11.0635 15.9389V15.9389" stroke="#03363D" stroke-width="0.5"/>
<path d="M15.3964 9.68004V9.68004C12.481 10.2631 10.2022 12.5419 9.61915 15.4573V15.4573" stroke="#03363D" stroke-width="0.5"/>
<path d="M20.2107 16.4199V16.4199C19.2624 18.0004 17.9397 19.3231 16.3592 20.2714V20.2714" stroke="#03363D" stroke-width="0.5"/>
<path d="M21.655 16.9013V16.9013C20.7278 19.0646 19.004 20.7885 16.8407 21.7156V21.7156" stroke="#03363D" stroke-width="0.5"/>
<path d="M23.0993 17.383V17.383C22.5162 20.2983 20.2374 22.5771 17.3221 23.1602V23.1602" stroke="#03363D" stroke-width="0.5"/>
<circle cx="16" cy="16.7528" r="15.75" stroke="#03363D" stroke-width="0.5"/>
</svg>
