<svg width="117" height="34" viewBox="0 0 117 34" fill="none" xmlns="http://www.w3.org/2000/svg">
<path d="M34.3206 21.704C31.7326 29.1442 23.6451 34.3211 16.528 32.7031C9.41098 31.0851 3.73588 26.2182 3.91145 15.881M3.91145 15.881L6.49947 18.4685M3.91145 15.881L0.999936 18.4685" stroke="#03363D" stroke-width="0.5"/>
<path d="M12.6461 11.9989L14.2636 9.73438H16.8516M12.6461 7.14636H18.4691L21.3806 11.9989L18.4691 16.5279H12.6461L9.73456 11.9989L12.6461 7.14636Z" stroke="#03363D" stroke-width="0.5"/>
<path d="M21.3806 16.8517L22.9981 14.5872H25.5861M21.3806 11.9991H27.2036L30.1151 16.8517L27.2036 21.3807H21.3806L18.4691 16.8517L21.3806 11.9991Z" stroke="#03363D" stroke-width="0.5"/>
<path d="M12.3226 21.381L13.9401 19.1165H16.5281M12.3226 16.5285H18.1456L21.0571 21.381L18.1456 25.9101H12.3226L9.41107 21.381L12.3226 16.5285Z" stroke="#03363D" stroke-width="0.5"/>
<path d="M4.23505 12.2962C6.82306 4.85595 14.9106 -0.32089 22.0276 1.2971C29.1447 2.91509 34.8198 7.78199 34.6442 18.1192M34.6442 18.1192L32.0562 15.5317M34.6442 18.1192L37.5557 15.5317" stroke="#03363D" stroke-width="0.5"/>
<path d="M50.5 20.388C50.556 20.476 50.584 20.568 50.584 20.664C50.584 20.784 50.536 20.884 50.44 20.964C50.352 21.036 50.248 21.072 50.128 21.072C49.944 21.072 49.8 20.992 49.696 20.832L48.088 18.288C47.88 17.96 47.664 17.736 47.44 17.616C47.216 17.488 46.912 17.424 46.528 17.424H45.016V20.556C45.016 20.708 44.972 20.832 44.884 20.928C44.796 21.016 44.68 21.06 44.536 21.06C44.384 21.06 44.264 21.016 44.176 20.928C44.088 20.832 44.044 20.708 44.044 20.556V13.02C44.044 12.876 44.088 12.76 44.176 12.672C44.272 12.584 44.396 12.54 44.548 12.54H47.524C48.444 12.54 49.144 12.744 49.624 13.152C50.112 13.56 50.356 14.16 50.356 14.952C50.356 15.624 50.16 16.164 49.768 16.572C49.384 16.98 48.832 17.228 48.112 17.316C48.312 17.38 48.492 17.484 48.652 17.628C48.812 17.772 48.972 17.972 49.132 18.228L50.5 20.388ZM47.44 16.608C48.096 16.608 48.584 16.472 48.904 16.2C49.232 15.928 49.396 15.516 49.396 14.964C49.396 14.42 49.236 14.016 48.916 13.752C48.596 13.488 48.104 13.356 47.44 13.356H45.016V16.608H47.44ZM56.6506 19.644C56.7386 19.644 56.8146 19.68 56.8786 19.752C56.9426 19.824 56.9746 19.916 56.9746 20.028C56.9746 20.228 56.8346 20.412 56.5546 20.58C56.2666 20.748 55.9626 20.876 55.6426 20.964C55.3226 21.044 55.0106 21.084 54.7066 21.084C53.8026 21.084 53.0866 20.816 52.5586 20.28C52.0386 19.744 51.7786 19.004 51.7786 18.06C51.7786 17.46 51.8946 16.932 52.1266 16.476C52.3586 16.012 52.6826 15.652 53.0986 15.396C53.5226 15.14 54.0026 15.012 54.5386 15.012C55.2986 15.012 55.9026 15.26 56.3506 15.756C56.7986 16.252 57.0226 16.924 57.0226 17.772C57.0226 17.932 56.9906 18.048 56.9266 18.12C56.8626 18.192 56.7586 18.228 56.6146 18.228H52.7506C52.8226 19.604 53.4746 20.292 54.7066 20.292C55.0186 20.292 55.2866 20.252 55.5106 20.172C55.7346 20.084 55.9746 19.968 56.2306 19.824C56.4386 19.704 56.5786 19.644 56.6506 19.644ZM54.5506 15.768C54.0386 15.768 53.6266 15.928 53.3146 16.248C53.0106 16.568 52.8306 17.02 52.7746 17.604H56.1706C56.1546 17.012 56.0066 16.56 55.7266 16.248C55.4466 15.928 55.0546 15.768 54.5506 15.768ZM63.1947 15.036C63.3467 15.036 63.4667 15.08 63.5547 15.168C63.6427 15.256 63.6867 15.372 63.6867 15.516V20.604C63.6867 21.476 63.4627 22.132 63.0147 22.572C62.5667 23.02 61.9027 23.244 61.0227 23.244C60.1667 23.244 59.4547 23.076 58.8867 22.74C58.5987 22.58 58.4547 22.396 58.4547 22.188C58.4547 22.076 58.4827 21.984 58.5387 21.912C58.6027 21.84 58.6827 21.804 58.7787 21.804C58.8587 21.804 59.0027 21.86 59.2107 21.972C59.4907 22.116 59.7667 22.232 60.0387 22.32C60.3107 22.408 60.6347 22.452 61.0107 22.452C61.5787 22.452 62.0067 22.3 62.2947 21.996C62.5827 21.7 62.7267 21.264 62.7267 20.688V19.656C62.5587 20.032 62.2987 20.32 61.9467 20.52C61.6027 20.72 61.1947 20.82 60.7227 20.82C60.2107 20.82 59.7547 20.7 59.3547 20.46C58.9627 20.22 58.6547 19.88 58.4307 19.44C58.2147 19 58.1067 18.492 58.1067 17.916C58.1067 17.34 58.2147 16.832 58.4307 16.392C58.6547 15.952 58.9627 15.612 59.3547 15.372C59.7547 15.132 60.2107 15.012 60.7227 15.012C61.1867 15.012 61.5907 15.112 61.9347 15.312C62.2787 15.512 62.5387 15.796 62.7147 16.164V15.516C62.7147 15.372 62.7547 15.256 62.8347 15.168C62.9227 15.08 63.0427 15.036 63.1947 15.036ZM60.9147 20.016C61.4747 20.016 61.9147 19.832 62.2347 19.464C62.5547 19.088 62.7147 18.572 62.7147 17.916C62.7147 17.268 62.5547 16.76 62.2347 16.392C61.9227 16.016 61.4827 15.828 60.9147 15.828C60.3467 15.828 59.8987 16.016 59.5707 16.392C59.2507 16.76 59.0907 17.268 59.0907 17.916C59.0907 18.572 59.2507 19.088 59.5707 19.464C59.8987 19.832 60.3467 20.016 60.9147 20.016ZM70.0099 19.644C70.0979 19.644 70.1739 19.68 70.2379 19.752C70.3019 19.824 70.3339 19.916 70.3339 20.028C70.3339 20.228 70.1939 20.412 69.9139 20.58C69.6259 20.748 69.3219 20.876 69.0019 20.964C68.6819 21.044 68.3699 21.084 68.0659 21.084C67.1619 21.084 66.4459 20.816 65.9179 20.28C65.3979 19.744 65.1379 19.004 65.1379 18.06C65.1379 17.46 65.2539 16.932 65.4859 16.476C65.7179 16.012 66.0419 15.652 66.4579 15.396C66.8819 15.14 67.3619 15.012 67.8979 15.012C68.6579 15.012 69.2619 15.26 69.7099 15.756C70.1579 16.252 70.3819 16.924 70.3819 17.772C70.3819 17.932 70.3499 18.048 70.2859 18.12C70.2219 18.192 70.1179 18.228 69.9739 18.228H66.1099C66.1819 19.604 66.8339 20.292 68.0659 20.292C68.3779 20.292 68.6459 20.252 68.8699 20.172C69.0939 20.084 69.3339 19.968 69.5899 19.824C69.7979 19.704 69.9379 19.644 70.0099 19.644ZM67.9099 15.768C67.3979 15.768 66.9859 15.928 66.6739 16.248C66.3699 16.568 66.1899 17.02 66.1339 17.604H69.5299C69.5139 17.012 69.3659 16.56 69.0859 16.248C68.8059 15.928 68.4139 15.768 67.9099 15.768ZM74.7541 15.012C76.1541 15.012 76.8541 15.784 76.8541 17.328V20.58C76.8541 20.732 76.8101 20.852 76.7221 20.94C76.6421 21.02 76.5261 21.06 76.3741 21.06C76.2221 21.06 76.1021 21.02 76.0141 20.94C75.9261 20.852 75.8821 20.732 75.8821 20.58V17.388C75.8821 16.844 75.7741 16.448 75.5581 16.2C75.3501 15.952 75.0141 15.828 74.5501 15.828C74.0141 15.828 73.5861 15.992 73.2661 16.32C72.9461 16.648 72.7861 17.092 72.7861 17.652V20.58C72.7861 20.732 72.7421 20.852 72.6541 20.94C72.5741 21.02 72.4581 21.06 72.3061 21.06C72.1541 21.06 72.0341 21.02 71.9461 20.94C71.8581 20.852 71.8141 20.732 71.8141 20.58V15.516C71.8141 15.372 71.8581 15.256 71.9461 15.168C72.0341 15.08 72.1541 15.036 72.3061 15.036C72.4501 15.036 72.5621 15.08 72.6421 15.168C72.7301 15.256 72.7741 15.368 72.7741 15.504V16.116C72.9661 15.756 73.2341 15.484 73.5781 15.3C73.9221 15.108 74.3141 15.012 74.7541 15.012ZM83.1584 19.644C83.2464 19.644 83.3224 19.68 83.3864 19.752C83.4504 19.824 83.4824 19.916 83.4824 20.028C83.4824 20.228 83.3424 20.412 83.0624 20.58C82.7744 20.748 82.4704 20.876 82.1504 20.964C81.8304 21.044 81.5184 21.084 81.2144 21.084C80.3104 21.084 79.5944 20.816 79.0664 20.28C78.5464 19.744 78.2864 19.004 78.2864 18.06C78.2864 17.46 78.4024 16.932 78.6344 16.476C78.8664 16.012 79.1904 15.652 79.6064 15.396C80.0304 15.14 80.5104 15.012 81.0464 15.012C81.8064 15.012 82.4104 15.26 82.8584 15.756C83.3064 16.252 83.5304 16.924 83.5304 17.772C83.5304 17.932 83.4984 18.048 83.4344 18.12C83.3704 18.192 83.2664 18.228 83.1224 18.228H79.2584C79.3304 19.604 79.9824 20.292 81.2144 20.292C81.5264 20.292 81.7944 20.252 82.0184 20.172C82.2424 20.084 82.4824 19.968 82.7384 19.824C82.9464 19.704 83.0864 19.644 83.1584 19.644ZM81.0584 15.768C80.5464 15.768 80.1344 15.928 79.8224 16.248C79.5184 16.568 79.3384 17.02 79.2824 17.604H82.6784C82.6624 17.012 82.5144 16.56 82.2344 16.248C81.9544 15.928 81.5624 15.768 81.0584 15.768ZM87.8545 15.036C88.1905 15.012 88.3585 15.148 88.3585 15.444C88.3585 15.572 88.3225 15.676 88.2505 15.756C88.1785 15.828 88.0545 15.872 87.8785 15.888L87.5185 15.924C86.9825 15.972 86.5825 16.164 86.3185 16.5C86.0625 16.828 85.9345 17.216 85.9345 17.664V20.58C85.9345 20.74 85.8905 20.86 85.8025 20.94C85.7145 21.02 85.5985 21.06 85.4545 21.06C85.3105 21.06 85.1905 21.02 85.0945 20.94C85.0065 20.852 84.9625 20.732 84.9625 20.58V15.516C84.9625 15.364 85.0105 15.248 85.1065 15.168C85.2025 15.08 85.3185 15.036 85.4545 15.036C85.5825 15.036 85.6905 15.08 85.7785 15.168C85.8665 15.248 85.9105 15.36 85.9105 15.504V16.176C86.0785 15.824 86.3145 15.556 86.6185 15.372C86.9305 15.188 87.2865 15.08 87.6865 15.048L87.8545 15.036ZM93.633 15.036C93.785 15.036 93.901 15.08 93.981 15.168C94.069 15.256 94.113 15.372 94.113 15.516V20.592C94.113 20.728 94.069 20.84 93.981 20.928C93.901 21.016 93.785 21.06 93.633 21.06C93.489 21.06 93.373 21.02 93.285 20.94C93.205 20.852 93.165 20.74 93.165 20.604V20.004C92.981 20.356 92.721 20.624 92.385 20.808C92.057 20.992 91.685 21.084 91.269 21.084C90.573 21.084 90.049 20.892 89.697 20.508C89.345 20.116 89.169 19.54 89.169 18.78V15.516C89.169 15.372 89.213 15.256 89.301 15.168C89.389 15.08 89.509 15.036 89.661 15.036C89.813 15.036 89.929 15.08 90.009 15.168C90.097 15.256 90.141 15.372 90.141 15.516V18.756C90.141 19.276 90.245 19.66 90.453 19.908C90.661 20.148 90.989 20.268 91.437 20.268C91.949 20.268 92.361 20.104 92.673 19.776C92.985 19.44 93.141 19 93.141 18.456V15.516C93.141 15.372 93.185 15.256 93.273 15.168C93.361 15.08 93.481 15.036 93.633 15.036ZM94.7075 23.184C94.5075 23.2 94.3595 23.172 94.2635 23.1C94.1595 23.036 94.1075 22.936 94.1075 22.8C94.1075 22.584 94.2475 22.46 94.5275 22.428L94.8635 22.404C95.2235 22.38 95.4875 22.272 95.6555 22.08C95.8315 21.888 95.9195 21.572 95.9195 21.132V15.516C95.9195 15.364 95.9635 15.248 96.0515 15.168C96.1475 15.08 96.2675 15.036 96.4115 15.036C96.5555 15.036 96.6715 15.08 96.7595 15.168C96.8475 15.248 96.8915 15.364 96.8915 15.516V21.072C96.8915 21.744 96.7395 22.248 96.4355 22.584C96.1395 22.92 95.6755 23.112 95.0435 23.16L94.7075 23.184ZM96.4115 13.776C96.2195 13.776 96.0635 13.72 95.9435 13.608C95.8235 13.496 95.7635 13.348 95.7635 13.164C95.7635 12.988 95.8235 12.844 95.9435 12.732C96.0635 12.62 96.2195 12.564 96.4115 12.564C96.6035 12.564 96.7595 12.62 96.8795 12.732C96.9995 12.844 97.0595 12.988 97.0595 13.164C97.0595 13.348 96.9995 13.496 96.8795 13.608C96.7595 13.72 96.6035 13.776 96.4115 13.776ZM103.497 22.536C103.529 22.52 103.573 22.512 103.629 22.512C103.701 22.512 103.757 22.54 103.797 22.596C103.845 22.652 103.869 22.716 103.869 22.788C103.869 22.924 103.809 23.024 103.689 23.088C103.385 23.24 103.089 23.316 102.801 23.316C102.385 23.316 102.045 23.196 101.781 22.956C101.525 22.724 101.397 22.42 101.397 22.044C101.397 21.748 101.481 21.484 101.649 21.252C101.817 21.02 102.053 20.836 102.357 20.7C102.349 20.676 102.345 20.636 102.345 20.58V20.004C102.193 20.348 101.961 20.616 101.649 20.808C101.337 20.992 100.977 21.084 100.569 21.084C100.193 21.084 99.8446 21.008 99.5246 20.856C99.2126 20.704 98.9646 20.492 98.7806 20.22C98.5966 19.948 98.5046 19.648 98.5046 19.32C98.5046 18.888 98.6166 18.548 98.8406 18.3C99.0646 18.052 99.4326 17.876 99.9446 17.772C100.457 17.66 101.169 17.604 102.081 17.604H102.345V17.208C102.345 16.728 102.245 16.376 102.045 16.152C101.853 15.928 101.537 15.816 101.097 15.816C100.553 15.816 100.001 15.964 99.4406 16.26C99.3446 16.316 99.2566 16.364 99.1766 16.404C99.1046 16.444 99.0406 16.464 98.9846 16.464C98.8886 16.464 98.8086 16.428 98.7446 16.356C98.6806 16.284 98.6486 16.192 98.6486 16.08C98.6486 15.968 98.6806 15.872 98.7446 15.792C98.8166 15.704 98.9286 15.616 99.0806 15.528C99.3606 15.368 99.6766 15.244 100.029 15.156C100.389 15.06 100.745 15.012 101.097 15.012C102.561 15.012 103.293 15.78 103.293 17.316V20.58C103.293 20.692 103.265 20.788 103.209 20.868C103.161 20.94 103.093 20.988 103.005 21.012C102.437 21.156 102.153 21.46 102.153 21.924C102.153 22.156 102.221 22.34 102.357 22.476C102.493 22.612 102.681 22.68 102.921 22.68C103.081 22.68 103.273 22.632 103.497 22.536ZM100.701 20.316C101.181 20.316 101.573 20.156 101.877 19.836C102.189 19.508 102.345 19.088 102.345 18.576V18.228H102.129C101.433 18.228 100.897 18.26 100.521 18.324C100.153 18.38 99.8886 18.48 99.7286 18.624C99.5766 18.768 99.5006 18.972 99.5006 19.236C99.5006 19.548 99.6126 19.808 99.8366 20.016C100.069 20.216 100.357 20.316 100.701 20.316ZM107.484 21.084C106.94 21.084 106.456 20.96 106.032 20.712C105.616 20.464 105.292 20.112 105.06 19.656C104.836 19.2 104.724 18.672 104.724 18.072C104.724 17.472 104.84 16.94 105.072 16.476C105.312 16.012 105.644 15.652 106.068 15.396C106.492 15.14 106.98 15.012 107.532 15.012C107.836 15.012 108.136 15.056 108.432 15.144C108.736 15.224 109 15.344 109.224 15.504C109.368 15.6 109.468 15.696 109.524 15.792C109.588 15.88 109.62 15.98 109.62 16.092C109.62 16.204 109.588 16.296 109.524 16.368C109.468 16.44 109.392 16.476 109.296 16.476C109.24 16.476 109.18 16.46 109.116 16.428C109.052 16.396 108.996 16.364 108.948 16.332C108.908 16.3 108.88 16.28 108.864 16.272C108.656 16.136 108.456 16.028 108.264 15.948C108.08 15.868 107.852 15.828 107.58 15.828C106.996 15.828 106.54 16.028 106.212 16.428C105.892 16.82 105.732 17.368 105.732 18.072C105.732 18.776 105.892 19.32 106.212 19.704C106.54 20.088 106.996 20.28 107.58 20.28C107.852 20.28 108.084 20.24 108.276 20.16C108.476 20.08 108.676 19.972 108.876 19.836C108.964 19.78 109.048 19.732 109.128 19.692C109.208 19.652 109.276 19.632 109.332 19.632C109.42 19.632 109.492 19.668 109.548 19.74C109.612 19.812 109.644 19.904 109.644 20.016C109.644 20.12 109.616 20.216 109.56 20.304C109.504 20.384 109.4 20.476 109.248 20.58C109.024 20.732 108.752 20.856 108.432 20.952C108.12 21.04 107.804 21.084 107.484 21.084ZM115.338 19.644C115.426 19.644 115.502 19.68 115.566 19.752C115.63 19.824 115.662 19.916 115.662 20.028C115.662 20.228 115.522 20.412 115.242 20.58C114.954 20.748 114.65 20.876 114.33 20.964C114.01 21.044 113.698 21.084 113.394 21.084C112.49 21.084 111.774 20.816 111.246 20.28C110.726 19.744 110.466 19.004 110.466 18.06C110.466 17.46 110.582 16.932 110.814 16.476C111.046 16.012 111.37 15.652 111.786 15.396C112.21 15.14 112.69 15.012 113.226 15.012C113.986 15.012 114.59 15.26 115.038 15.756C115.486 16.252 115.71 16.924 115.71 17.772C115.71 17.932 115.678 18.048 115.614 18.12C115.55 18.192 115.446 18.228 115.302 18.228H111.438C111.51 19.604 112.162 20.292 113.394 20.292C113.706 20.292 113.974 20.252 114.198 20.172C114.422 20.084 114.662 19.968 114.918 19.824C115.126 19.704 115.266 19.644 115.338 19.644ZM113.238 15.768C112.726 15.768 112.314 15.928 112.002 16.248C111.698 16.568 111.518 17.02 111.462 17.604H114.858C114.842 17.012 114.694 16.56 114.414 16.248C114.134 15.928 113.742 15.768 113.238 15.768Z" fill="#03363D"/>
</svg>
